<?xml version="1.0" encoding="UTF-8" standalone="no"?>
<!DOCTYPE svg PUBLIC "-//W3C//DTD SVG 1.1//EN" "http://www.w3.org/Graphics/SVG/1.1/DTD/svg11.dtd">
<svg width="100%" height="100%" viewBox="0 0 23630 15000" version="1.1" xmlns="http://www.w3.org/2000/svg" xmlns:xlink="http://www.w3.org/1999/xlink" xml:space="preserve" xmlns:serif="http://www.serif.com/" style="fill-rule:evenodd;clip-rule:evenodd;stroke-linejoin:round;stroke-miterlimit:2;">
    <g transform="matrix(1.3609,0,0,1.25887,9962.61,7475.1)">
        <g transform="matrix(610.261,0,0,610.261,7408.12,2137.45)">
            <path d="M0.505,-0.718L0.505,-0.025C0.505,-0.008 0.496,-0 0.477,-0L0.447,-0C0.428,-0 0.419,-0.008 0.419,-0.025L0.419,-0.066C0.402,-0.043 0.383,-0.025 0.36,-0.011C0.337,0.003 0.306,0.01 0.268,0.01C0.233,0.01 0.202,0.004 0.174,-0.01C0.145,-0.023 0.121,-0.041 0.101,-0.064C0.081,-0.087 0.066,-0.114 0.055,-0.145C0.044,-0.175 0.038,-0.209 0.038,-0.244C0.038,-0.279 0.044,-0.313 0.055,-0.344C0.066,-0.375 0.081,-0.401 0.101,-0.425C0.121,-0.448 0.145,-0.466 0.174,-0.479C0.202,-0.492 0.233,-0.499 0.268,-0.499C0.306,-0.499 0.337,-0.492 0.36,-0.477C0.383,-0.462 0.403,-0.443 0.419,-0.42L0.419,-0.718C0.419,-0.734 0.428,-0.742 0.447,-0.742L0.476,-0.742C0.485,-0.742 0.492,-0.74 0.497,-0.736C0.502,-0.731 0.505,-0.725 0.505,-0.718ZM0.427,-0.243C0.427,-0.266 0.423,-0.289 0.416,-0.31C0.409,-0.331 0.399,-0.349 0.386,-0.365C0.373,-0.38 0.357,-0.393 0.338,-0.402C0.319,-0.411 0.299,-0.415 0.276,-0.415C0.251,-0.415 0.23,-0.411 0.211,-0.402C0.192,-0.393 0.176,-0.38 0.163,-0.365C0.15,-0.349 0.141,-0.331 0.135,-0.31C0.128,-0.289 0.125,-0.266 0.125,-0.243C0.125,-0.22 0.128,-0.198 0.135,-0.177C0.141,-0.156 0.15,-0.138 0.163,-0.123C0.176,-0.107 0.192,-0.095 0.211,-0.086C0.23,-0.077 0.251,-0.072 0.276,-0.072C0.299,-0.072 0.319,-0.077 0.338,-0.086C0.356,-0.095 0.372,-0.107 0.385,-0.123C0.398,-0.138 0.409,-0.156 0.416,-0.177C0.423,-0.198 0.427,-0.22 0.427,-0.243Z" style="fill:rgb(111,112,115);fill-rule:nonzero;"/>
        </g>
        <g transform="matrix(610.261,0,0,610.261,7724.85,2137.45)">
            <path d="M0.43,-0.025L0.43,-0.072C0.415,-0.049 0.397,-0.03 0.374,-0.014C0.351,0.002 0.32,0.01 0.279,0.01C0.244,0.01 0.212,0.004 0.183,-0.01C0.154,-0.023 0.128,-0.041 0.107,-0.064C0.086,-0.087 0.069,-0.114 0.058,-0.145C0.046,-0.175 0.04,-0.209 0.04,-0.244C0.04,-0.279 0.046,-0.313 0.058,-0.344C0.069,-0.375 0.086,-0.401 0.107,-0.425C0.128,-0.448 0.153,-0.466 0.182,-0.479C0.211,-0.492 0.244,-0.499 0.279,-0.499C0.3,-0.499 0.318,-0.497 0.333,-0.492C0.348,-0.487 0.362,-0.481 0.374,-0.474C0.386,-0.466 0.397,-0.457 0.406,-0.447C0.415,-0.437 0.423,-0.427 0.43,-0.416L0.434,-0.466C0.435,-0.474 0.437,-0.48 0.44,-0.485C0.443,-0.489 0.449,-0.491 0.458,-0.491L0.487,-0.491C0.494,-0.491 0.501,-0.489 0.506,-0.485C0.511,-0.48 0.513,-0.474 0.513,-0.466L0.513,-0.022C0.513,-0.015 0.511,-0.01 0.506,-0.006C0.501,-0.002 0.494,-0 0.487,-0L0.455,-0C0.438,-0 0.43,-0.008 0.43,-0.025ZM0.123,-0.244C0.123,-0.221 0.127,-0.199 0.134,-0.178C0.141,-0.157 0.152,-0.139 0.166,-0.124C0.179,-0.108 0.196,-0.096 0.215,-0.087C0.234,-0.078 0.256,-0.073 0.279,-0.073C0.303,-0.073 0.324,-0.077 0.343,-0.086C0.362,-0.095 0.378,-0.107 0.391,-0.122C0.404,-0.137 0.413,-0.154 0.42,-0.175C0.427,-0.196 0.43,-0.218 0.43,-0.242C0.43,-0.265 0.427,-0.288 0.42,-0.309C0.413,-0.33 0.404,-0.348 0.391,-0.364C0.378,-0.379 0.363,-0.392 0.344,-0.401C0.325,-0.41 0.304,-0.415 0.279,-0.415C0.255,-0.415 0.233,-0.411 0.214,-0.402C0.195,-0.393 0.178,-0.38 0.165,-0.365C0.152,-0.349 0.141,-0.331 0.134,-0.31C0.127,-0.289 0.123,-0.267 0.123,-0.244Z" style="fill:rgb(111,112,115);fill-rule:nonzero;"/>
        </g>
        <g transform="matrix(610.261,0,0,610.261,8050.73,2137.45)">
            <path d="M0.251,0.008L0.235,0.009C0.219,0.009 0.204,0.008 0.189,0.006C0.173,0.003 0.16,-0.002 0.149,-0.011C0.138,-0.019 0.129,-0.031 0.122,-0.047C0.115,-0.063 0.111,-0.084 0.111,-0.111L0.111,-0.411L0.051,-0.411C0.043,-0.411 0.037,-0.413 0.033,-0.416C0.028,-0.419 0.026,-0.424 0.026,-0.433L0.026,-0.47C0.026,-0.479 0.028,-0.484 0.033,-0.487C0.037,-0.49 0.043,-0.491 0.051,-0.491L0.111,-0.491L0.111,-0.632C0.111,-0.643 0.117,-0.649 0.128,-0.652L0.179,-0.659C0.187,-0.659 0.192,-0.656 0.195,-0.651C0.197,-0.646 0.198,-0.64 0.198,-0.633L0.198,-0.491L0.272,-0.491C0.287,-0.491 0.294,-0.483 0.294,-0.468L0.294,-0.435C0.294,-0.419 0.287,-0.411 0.272,-0.411L0.198,-0.411L0.198,-0.143C0.198,-0.126 0.199,-0.113 0.201,-0.104C0.202,-0.095 0.205,-0.088 0.21,-0.083C0.214,-0.078 0.219,-0.076 0.226,-0.075C0.233,-0.074 0.241,-0.073 0.251,-0.073C0.268,-0.073 0.276,-0.065 0.276,-0.048L0.276,-0.016C0.276,-0.001 0.268,0.007 0.251,0.008Z" style="fill:rgb(111,112,115);fill-rule:nonzero;"/>
        </g>
        <g transform="matrix(610.261,0,0,610.261,8202.07,2137.45)">
            <path d="M0.43,-0.025L0.43,-0.072C0.415,-0.049 0.397,-0.03 0.374,-0.014C0.351,0.002 0.32,0.01 0.279,0.01C0.244,0.01 0.212,0.004 0.183,-0.01C0.154,-0.023 0.128,-0.041 0.107,-0.064C0.086,-0.087 0.069,-0.114 0.058,-0.145C0.046,-0.175 0.04,-0.209 0.04,-0.244C0.04,-0.279 0.046,-0.313 0.058,-0.344C0.069,-0.375 0.086,-0.401 0.107,-0.425C0.128,-0.448 0.153,-0.466 0.182,-0.479C0.211,-0.492 0.244,-0.499 0.279,-0.499C0.3,-0.499 0.318,-0.497 0.333,-0.492C0.348,-0.487 0.362,-0.481 0.374,-0.474C0.386,-0.466 0.397,-0.457 0.406,-0.447C0.415,-0.437 0.423,-0.427 0.43,-0.416L0.434,-0.466C0.435,-0.474 0.437,-0.48 0.44,-0.485C0.443,-0.489 0.449,-0.491 0.458,-0.491L0.487,-0.491C0.494,-0.491 0.501,-0.489 0.506,-0.485C0.511,-0.48 0.513,-0.474 0.513,-0.466L0.513,-0.022C0.513,-0.015 0.511,-0.01 0.506,-0.006C0.501,-0.002 0.494,-0 0.487,-0L0.455,-0C0.438,-0 0.43,-0.008 0.43,-0.025ZM0.123,-0.244C0.123,-0.221 0.127,-0.199 0.134,-0.178C0.141,-0.157 0.152,-0.139 0.166,-0.124C0.179,-0.108 0.196,-0.096 0.215,-0.087C0.234,-0.078 0.256,-0.073 0.279,-0.073C0.303,-0.073 0.324,-0.077 0.343,-0.086C0.362,-0.095 0.378,-0.107 0.391,-0.122C0.404,-0.137 0.413,-0.154 0.42,-0.175C0.427,-0.196 0.43,-0.218 0.43,-0.242C0.43,-0.265 0.427,-0.288 0.42,-0.309C0.413,-0.33 0.404,-0.348 0.391,-0.364C0.378,-0.379 0.363,-0.392 0.344,-0.401C0.325,-0.41 0.304,-0.415 0.279,-0.415C0.255,-0.415 0.233,-0.411 0.214,-0.402C0.195,-0.393 0.178,-0.38 0.165,-0.365C0.152,-0.349 0.141,-0.331 0.134,-0.31C0.127,-0.289 0.123,-0.267 0.123,-0.244Z" style="fill:rgb(111,112,115);fill-rule:nonzero;"/>
        </g>
        <g transform="matrix(610.261,0,0,610.261,8609.12,2137.45)">
            <path d="M0.505,-0.718L0.505,-0.025C0.505,-0.008 0.496,-0 0.477,-0L0.447,-0C0.428,-0 0.419,-0.008 0.419,-0.025L0.419,-0.066C0.402,-0.043 0.383,-0.025 0.36,-0.011C0.337,0.003 0.306,0.01 0.268,0.01C0.233,0.01 0.202,0.004 0.174,-0.01C0.145,-0.023 0.121,-0.041 0.101,-0.064C0.081,-0.087 0.066,-0.114 0.055,-0.145C0.044,-0.175 0.038,-0.209 0.038,-0.244C0.038,-0.279 0.044,-0.313 0.055,-0.344C0.066,-0.375 0.081,-0.401 0.101,-0.425C0.121,-0.448 0.145,-0.466 0.174,-0.479C0.202,-0.492 0.233,-0.499 0.268,-0.499C0.306,-0.499 0.337,-0.492 0.36,-0.477C0.383,-0.462 0.403,-0.443 0.419,-0.42L0.419,-0.718C0.419,-0.734 0.428,-0.742 0.447,-0.742L0.476,-0.742C0.485,-0.742 0.492,-0.74 0.497,-0.736C0.502,-0.731 0.505,-0.725 0.505,-0.718ZM0.427,-0.243C0.427,-0.266 0.423,-0.289 0.416,-0.31C0.409,-0.331 0.399,-0.349 0.386,-0.365C0.373,-0.38 0.357,-0.393 0.338,-0.402C0.319,-0.411 0.299,-0.415 0.276,-0.415C0.251,-0.415 0.23,-0.411 0.211,-0.402C0.192,-0.393 0.176,-0.38 0.163,-0.365C0.15,-0.349 0.141,-0.331 0.135,-0.31C0.128,-0.289 0.125,-0.266 0.125,-0.243C0.125,-0.22 0.128,-0.198 0.135,-0.177C0.141,-0.156 0.15,-0.138 0.163,-0.123C0.176,-0.107 0.192,-0.095 0.211,-0.086C0.23,-0.077 0.251,-0.072 0.276,-0.072C0.299,-0.072 0.319,-0.077 0.338,-0.086C0.356,-0.095 0.372,-0.107 0.385,-0.123C0.398,-0.138 0.409,-0.156 0.416,-0.177C0.423,-0.198 0.427,-0.22 0.427,-0.243Z" style="fill:rgb(111,112,115);fill-rule:nonzero;"/>
        </g>
        <g transform="matrix(610.261,0,0,610.261,8925.84,2137.45)">
            <path d="M0.162,-0.469L0.167,-0.432C0.176,-0.447 0.189,-0.462 0.207,-0.477C0.225,-0.492 0.249,-0.499 0.28,-0.499C0.291,-0.499 0.303,-0.497 0.314,-0.494C0.325,-0.491 0.335,-0.487 0.344,-0.483C0.353,-0.478 0.36,-0.474 0.366,-0.469C0.371,-0.464 0.374,-0.46 0.374,-0.457C0.374,-0.456 0.373,-0.453 0.372,-0.449L0.347,-0.402C0.343,-0.395 0.339,-0.392 0.334,-0.392C0.331,-0.392 0.328,-0.393 0.327,-0.394C0.325,-0.395 0.323,-0.396 0.322,-0.397C0.315,-0.401 0.307,-0.405 0.297,-0.408C0.287,-0.411 0.277,-0.412 0.268,-0.413C0.253,-0.413 0.24,-0.409 0.227,-0.401C0.214,-0.393 0.204,-0.383 0.195,-0.371C0.186,-0.358 0.18,-0.344 0.175,-0.329C0.17,-0.313 0.167,-0.297 0.167,-0.282L0.167,-0.022C0.167,-0.007 0.16,-0 0.145,-0L0.104,-0C0.089,-0 0.081,-0.007 0.081,-0.022L0.081,-0.469C0.081,-0.476 0.083,-0.481 0.088,-0.485C0.092,-0.489 0.097,-0.491 0.103,-0.491L0.139,-0.491C0.146,-0.491 0.152,-0.489 0.156,-0.485C0.159,-0.48 0.161,-0.475 0.162,-0.469Z" style="fill:rgb(111,112,115);fill-rule:nonzero;"/>
        </g>
        <g transform="matrix(610.261,0,0,610.261,9121.74,2137.45)">
            <path d="M0.167,-0.469L0.167,-0.022C0.167,-0.007 0.16,-0 0.145,-0L0.103,-0C0.088,-0 0.081,-0.007 0.081,-0.022L0.081,-0.469C0.081,-0.484 0.088,-0.491 0.103,-0.491L0.145,-0.491C0.16,-0.491 0.167,-0.484 0.167,-0.469ZM0.061,-0.629C0.061,-0.646 0.067,-0.661 0.08,-0.674C0.092,-0.686 0.107,-0.692 0.124,-0.692C0.142,-0.692 0.157,-0.686 0.169,-0.674C0.181,-0.661 0.187,-0.646 0.187,-0.629C0.187,-0.612 0.181,-0.597 0.169,-0.585C0.157,-0.573 0.142,-0.567 0.124,-0.567C0.107,-0.567 0.092,-0.573 0.08,-0.585C0.067,-0.597 0.061,-0.612 0.061,-0.629Z" style="fill:rgb(111,112,115);fill-rule:nonzero;"/>
        </g>
        <g transform="matrix(610.261,0,0,610.261,9242.57,2137.45)">
            <path d="M0.268,-0.746C0.284,-0.746 0.292,-0.737 0.292,-0.72L0.292,-0.686C0.292,-0.679 0.29,-0.674 0.287,-0.669C0.283,-0.664 0.277,-0.661 0.27,-0.661C0.247,-0.66 0.229,-0.655 0.216,-0.646C0.203,-0.637 0.196,-0.617 0.196,-0.586L0.196,-0.491L0.268,-0.491C0.284,-0.491 0.292,-0.483 0.292,-0.466L0.292,-0.44C0.292,-0.421 0.284,-0.412 0.268,-0.412L0.196,-0.412L0.196,-0.025C0.196,-0.017 0.193,-0.011 0.188,-0.007C0.182,-0.002 0.176,-0 0.17,-0L0.132,-0C0.116,-0 0.108,-0.008 0.108,-0.025L0.108,-0.412L0.056,-0.412C0.049,-0.412 0.043,-0.415 0.038,-0.42C0.033,-0.424 0.031,-0.431 0.031,-0.44L0.031,-0.466C0.031,-0.475 0.033,-0.482 0.038,-0.486C0.043,-0.489 0.049,-0.491 0.056,-0.491L0.108,-0.491L0.108,-0.587C0.108,-0.634 0.121,-0.672 0.146,-0.701C0.17,-0.73 0.211,-0.745 0.268,-0.746Z" style="fill:rgb(111,112,115);fill-rule:nonzero;"/>
        </g>
        <g transform="matrix(610.261,0,0,610.261,9385.37,2137.45)">
            <path d="M0.251,0.008L0.235,0.009C0.219,0.009 0.204,0.008 0.189,0.006C0.173,0.003 0.16,-0.002 0.149,-0.011C0.138,-0.019 0.129,-0.031 0.122,-0.047C0.115,-0.063 0.111,-0.084 0.111,-0.111L0.111,-0.411L0.051,-0.411C0.043,-0.411 0.037,-0.413 0.033,-0.416C0.028,-0.419 0.026,-0.424 0.026,-0.433L0.026,-0.47C0.026,-0.479 0.028,-0.484 0.033,-0.487C0.037,-0.49 0.043,-0.491 0.051,-0.491L0.111,-0.491L0.111,-0.632C0.111,-0.643 0.117,-0.649 0.128,-0.652L0.179,-0.659C0.187,-0.659 0.192,-0.656 0.195,-0.651C0.197,-0.646 0.198,-0.64 0.198,-0.633L0.198,-0.491L0.272,-0.491C0.287,-0.491 0.294,-0.483 0.294,-0.468L0.294,-0.435C0.294,-0.419 0.287,-0.411 0.272,-0.411L0.198,-0.411L0.198,-0.143C0.198,-0.126 0.199,-0.113 0.201,-0.104C0.202,-0.095 0.205,-0.088 0.21,-0.083C0.214,-0.078 0.219,-0.076 0.226,-0.075C0.233,-0.074 0.241,-0.073 0.251,-0.073C0.268,-0.073 0.276,-0.065 0.276,-0.048L0.276,-0.016C0.276,-0.001 0.268,0.007 0.251,0.008Z" style="fill:rgb(111,112,115);fill-rule:nonzero;"/>
        </g>
    </g>
    <g transform="matrix(1,0,0,1,10012.8,5913.19)">
        <g transform="matrix(1.51807e-16,-2.4792,2.4792,1.51807e-16,10120.8,6897.58)">
            <path d="M1640.69,336.797C1635.05,325.493 1623.5,318.35 1610.87,318.35C1598.23,318.35 1586.68,325.493 1581.04,336.797L1446.01,607.335C1440.85,617.668 1441.41,629.934 1447.49,639.755C1453.56,649.577 1464.29,655.554 1475.84,655.554L1745.9,655.554C1757.45,655.554 1768.17,649.577 1774.25,639.755C1780.32,629.934 1780.88,617.668 1775.72,607.335L1640.69,336.797ZM1610.87,351.683L1745.9,622.221L1475.84,622.221L1610.87,351.683Z" style="fill:url(#_Linear1);"/>
        </g>
        <g transform="matrix(1.51807e-16,-2.4792,2.4792,1.51807e-16,9928.14,7180.8)">
            <path d="M1640.6,336.79C1634.96,325.487 1623.41,318.347 1610.78,318.35C1598.14,318.353 1586.6,325.498 1580.95,336.804L1446.01,607.342C1440.85,617.675 1441.41,629.939 1447.49,639.759C1453.56,649.578 1464.29,655.554 1475.84,655.554L1745.9,655.554C1757.45,655.554 1768.17,649.575 1774.25,639.752C1780.32,629.928 1780.88,617.661 1775.72,607.328L1640.6,336.79ZM1610.78,351.683L1745.9,622.221L1475.84,622.221L1610.78,351.683Z" style="fill:url(#_Linear2);"/>
        </g>
        <g transform="matrix(1.52565,0,0,1.52565,9435.2,223.386)">
            <g transform="matrix(191.721,0,0,175,1440.53,2186.55)">
                <path d="M0.06,-0.047C0.06,-0.064 0.066,-0.079 0.078,-0.092C0.09,-0.104 0.105,-0.11 0.122,-0.11C0.14,-0.11 0.155,-0.104 0.167,-0.092C0.179,-0.079 0.185,-0.064 0.185,-0.047C0.185,-0.03 0.179,-0.015 0.167,-0.003C0.155,0.01 0.14,0.016 0.122,0.016C0.105,0.016 0.09,0.01 0.078,-0.003C0.066,-0.015 0.06,-0.03 0.06,-0.047Z" style="fill:rgb(111,112,115);fill-rule:nonzero;"/>
            </g>
            <g transform="matrix(191.721,0,0,175,1481.56,2186.55)">
                <path d="M0.251,0.008L0.235,0.009C0.219,0.009 0.204,0.008 0.189,0.006C0.173,0.003 0.16,-0.002 0.149,-0.011C0.138,-0.019 0.129,-0.031 0.122,-0.047C0.115,-0.063 0.111,-0.084 0.111,-0.111L0.111,-0.411L0.051,-0.411C0.043,-0.411 0.037,-0.413 0.033,-0.416C0.028,-0.419 0.026,-0.424 0.026,-0.433L0.026,-0.47C0.026,-0.479 0.028,-0.484 0.033,-0.487C0.037,-0.49 0.043,-0.491 0.051,-0.491L0.111,-0.491L0.111,-0.632C0.111,-0.643 0.117,-0.649 0.128,-0.652L0.179,-0.659C0.187,-0.659 0.192,-0.656 0.195,-0.651C0.197,-0.646 0.198,-0.64 0.198,-0.633L0.198,-0.491L0.272,-0.491C0.287,-0.491 0.294,-0.483 0.294,-0.468L0.294,-0.435C0.294,-0.419 0.287,-0.411 0.272,-0.411L0.198,-0.411L0.198,-0.143C0.198,-0.126 0.199,-0.113 0.201,-0.104C0.202,-0.095 0.205,-0.088 0.21,-0.083C0.214,-0.078 0.219,-0.076 0.226,-0.075C0.233,-0.074 0.241,-0.073 0.251,-0.073C0.268,-0.073 0.276,-0.065 0.276,-0.048L0.276,-0.016C0.276,-0.001 0.268,0.007 0.251,0.008Z" style="fill:rgb(111,112,115);fill-rule:nonzero;"/>
            </g>
            <g transform="matrix(191.721,0,0,175,1531.36,2186.55)">
                <path d="M0.28,0.012C0.247,0.012 0.217,0.005 0.188,-0.008C0.159,-0.021 0.134,-0.04 0.113,-0.063C0.092,-0.086 0.075,-0.113 0.063,-0.144C0.05,-0.175 0.044,-0.209 0.044,-0.244C0.044,-0.279 0.05,-0.313 0.063,-0.344C0.075,-0.375 0.092,-0.403 0.113,-0.426C0.134,-0.449 0.159,-0.468 0.188,-0.481C0.217,-0.494 0.247,-0.501 0.28,-0.501C0.311,-0.501 0.339,-0.495 0.367,-0.483C0.394,-0.47 0.417,-0.453 0.438,-0.432C0.458,-0.411 0.474,-0.386 0.486,-0.357C0.498,-0.328 0.504,-0.298 0.504,-0.265L0.504,-0.253C0.504,-0.233 0.498,-0.22 0.485,-0.215C0.472,-0.21 0.457,-0.207 0.439,-0.207L0.132,-0.207C0.138,-0.167 0.155,-0.134 0.183,-0.11C0.21,-0.085 0.243,-0.072 0.28,-0.072C0.3,-0.072 0.32,-0.076 0.341,-0.083C0.361,-0.09 0.379,-0.101 0.395,-0.114C0.4,-0.119 0.406,-0.121 0.413,-0.121C0.418,-0.121 0.421,-0.119 0.424,-0.115L0.452,-0.073C0.455,-0.07 0.456,-0.067 0.456,-0.064C0.455,-0.059 0.453,-0.055 0.45,-0.052C0.446,-0.049 0.442,-0.046 0.439,-0.044C0.416,-0.029 0.392,-0.016 0.366,-0.005C0.34,0.007 0.311,0.012 0.28,0.012ZM0.136,-0.281L0.419,-0.281C0.416,-0.3 0.41,-0.317 0.401,-0.334C0.392,-0.351 0.382,-0.365 0.369,-0.378C0.356,-0.39 0.342,-0.4 0.327,-0.407C0.311,-0.413 0.295,-0.417 0.278,-0.417C0.261,-0.417 0.244,-0.413 0.229,-0.407C0.214,-0.4 0.2,-0.39 0.188,-0.378C0.175,-0.365 0.165,-0.351 0.156,-0.334C0.147,-0.317 0.14,-0.3 0.136,-0.281Z" style="fill:rgb(111,112,115);fill-rule:nonzero;"/>
            </g>
            <g transform="matrix(191.721,0,0,175,1623.77,2186.55)">
                <path d="M0.295,-0.068C0.315,-0.068 0.335,-0.072 0.356,-0.081C0.377,-0.089 0.395,-0.1 0.41,-0.113C0.416,-0.118 0.422,-0.12 0.428,-0.12C0.433,-0.12 0.437,-0.118 0.439,-0.114L0.468,-0.073C0.47,-0.07 0.471,-0.067 0.471,-0.064C0.471,-0.059 0.469,-0.055 0.465,-0.052C0.461,-0.049 0.457,-0.046 0.454,-0.044C0.432,-0.029 0.408,-0.016 0.381,-0.005C0.354,0.007 0.326,0.012 0.295,0.012C0.26,0.012 0.226,0.005 0.195,-0.008C0.164,-0.021 0.136,-0.04 0.114,-0.063C0.091,-0.086 0.072,-0.113 0.059,-0.144C0.046,-0.175 0.039,-0.209 0.039,-0.244C0.039,-0.279 0.046,-0.313 0.059,-0.344C0.072,-0.375 0.091,-0.403 0.114,-0.426C0.136,-0.449 0.164,-0.468 0.195,-0.481C0.226,-0.494 0.26,-0.501 0.295,-0.501C0.322,-0.501 0.347,-0.497 0.373,-0.489C0.398,-0.481 0.423,-0.468 0.449,-0.449C0.46,-0.442 0.465,-0.435 0.465,-0.429L0.465,-0.424C0.464,-0.421 0.463,-0.419 0.462,-0.418L0.435,-0.375L0.435,-0.376C0.432,-0.372 0.428,-0.37 0.422,-0.37C0.418,-0.37 0.413,-0.373 0.406,-0.378C0.391,-0.39 0.374,-0.4 0.355,-0.409C0.336,-0.417 0.316,-0.421 0.295,-0.421C0.271,-0.421 0.248,-0.416 0.227,-0.407C0.206,-0.398 0.187,-0.385 0.171,-0.369C0.155,-0.352 0.142,-0.333 0.133,-0.312C0.124,-0.291 0.119,-0.268 0.119,-0.244C0.119,-0.22 0.124,-0.197 0.133,-0.176C0.142,-0.155 0.155,-0.136 0.171,-0.12C0.187,-0.104 0.206,-0.091 0.227,-0.082C0.248,-0.073 0.271,-0.068 0.295,-0.068Z" style="fill:rgb(111,112,115);fill-rule:nonzero;"/>
            </g>
            <g transform="matrix(191.721,0,0,175,1712.15,2186.55)">
                <path d="M0.167,-0.72L0.167,-0.422C0.175,-0.431 0.185,-0.441 0.198,-0.45C0.211,-0.459 0.225,-0.468 0.24,-0.475C0.255,-0.482 0.271,-0.488 0.288,-0.493C0.305,-0.498 0.32,-0.5 0.335,-0.5C0.364,-0.5 0.39,-0.495 0.413,-0.484C0.436,-0.472 0.456,-0.458 0.473,-0.439C0.489,-0.42 0.501,-0.398 0.51,-0.373C0.519,-0.348 0.523,-0.32 0.523,-0.291L0.523,-0.025C0.523,-0.017 0.521,-0.011 0.516,-0.007C0.511,-0.002 0.506,-0 0.499,-0L0.458,-0C0.449,-0 0.443,-0.002 0.44,-0.006C0.437,-0.01 0.436,-0.016 0.436,-0.024L0.436,-0.291C0.436,-0.308 0.434,-0.324 0.43,-0.339C0.425,-0.354 0.418,-0.367 0.409,-0.378C0.4,-0.389 0.388,-0.397 0.373,-0.404C0.358,-0.411 0.339,-0.414 0.318,-0.414C0.302,-0.414 0.285,-0.411 0.268,-0.405C0.251,-0.399 0.235,-0.391 0.221,-0.38C0.206,-0.369 0.194,-0.357 0.184,-0.343C0.174,-0.328 0.168,-0.313 0.167,-0.296L0.167,-0.022C0.167,-0.007 0.16,-0 0.145,-0L0.104,-0C0.089,-0 0.081,-0.007 0.081,-0.022L0.081,-0.72C0.081,-0.735 0.088,-0.742 0.103,-0.742L0.144,-0.742C0.151,-0.742 0.156,-0.74 0.161,-0.736C0.165,-0.732 0.167,-0.727 0.167,-0.72Z" style="fill:rgb(111,112,115);fill-rule:nonzero;"/>
            </g>
        </g>
    </g>
    <defs>
        <linearGradient id="_Linear1" x1="0" y1="0" x2="1" y2="0" gradientUnits="userSpaceOnUse" gradientTransform="matrix(270.062,0,0,270.062,1475.84,486.952)"><stop offset="0" style="stop-color:rgb(255,214,73);stop-opacity:1"/><stop offset="0.23" style="stop-color:rgb(254,197,83);stop-opacity:1"/><stop offset="0.83" style="stop-color:rgb(241,100,101);stop-opacity:1"/><stop offset="1" style="stop-color:rgb(240,86,100);stop-opacity:1"/></linearGradient>
        <linearGradient id="_Linear2" x1="0" y1="0" x2="1" y2="0" gradientUnits="userSpaceOnUse" gradientTransform="matrix(270.062,0,0,270.062,1475.84,486.952)"><stop offset="0" style="stop-color:rgb(66,106,179);stop-opacity:1"/><stop offset="1" style="stop-color:rgb(90,165,100);stop-opacity:1"/></linearGradient>
    </defs>
</svg>
