<?xml version="1.0" encoding="UTF-8" standalone="no"?>
<!DOCTYPE svg PUBLIC "-//W3C//DTD SVG 1.1//EN" "http://www.w3.org/Graphics/SVG/1.1/DTD/svg11.dtd">
<svg width="100%" height="100%" viewBox="0 0 2363 1418" version="1.1" xmlns="http://www.w3.org/2000/svg" xmlns:xlink="http://www.w3.org/1999/xlink" xml:space="preserve" xmlns:serif="http://www.serif.com/" style="fill-rule:evenodd;clip-rule:evenodd;stroke-linecap:round;stroke-linejoin:round;stroke-miterlimit:1.5;">
    <g transform="matrix(1,0,0,1,-77.9901,-74.249)">
        <g>
            <g transform="matrix(1,0,0,1,102.811,168.399)">
                <text x="0px" y="0px" style="font-family:'Avenir-Roman', 'Avenir', sans-serif;font-size:100px;">met</text>
            </g>
            <g transform="matrix(1,0,0,1,278.911,168.399)">
                <text x="0px" y="0px" style="font-family:'Avenir-Roman', 'Avenir', sans-serif;font-size:100px;">hods</text>
            </g>
        </g>
    </g>
    <g transform="matrix(1,0,0,1,2048.7,1404.04)">
        <text x="0px" y="0px" style="font-family:'Avenir-Roman', 'Avenir', sans-serif;font-size:100px;">data</text>
    </g>
    <g transform="matrix(1,0,0,0.826522,3,-11.8412)">
        <rect x="242.673" y="250.103" width="968.061" height="634.684" style="fill:rgb(255,251,212);"/>
    </g>
    <g transform="matrix(1,0,0,0.826522,1003.95,-11.8412)">
        <rect x="242.673" y="250.103" width="968.061" height="634.684" style="fill:rgb(254,208,164);"/>
    </g>
    <g transform="matrix(1,0,0,0.826522,1.52709,543.353)">
        <rect x="242.673" y="250.103" width="968.061" height="634.684" style="fill:rgb(240,239,243);"/>
    </g>
    <g transform="matrix(1,0,0,0.826522,1002.48,543.353)">
        <rect x="242.673" y="250.103" width="968.061" height="634.684" style="fill:rgb(250,200,206);"/>
    </g>
    <g transform="matrix(1.0281,0,0,0.817005,8.14428,-36.7389)">
        <path d="M173.089,238.601L173.089,1637.61L2166.68,1637.61" style="fill:none;stroke:black;stroke-width:11.85px;"/>
        <g transform="matrix(0.972668,0,0,1.22398,-473.496,127.405)">
            <path d="M665.028,65.001L698.6,135.954L631.456,135.954L665.028,65.001Z" style="stroke:rgb(235,235,235);stroke-width:0.5px;"/>
        </g>
        <g transform="matrix(-1.78676e-16,1.22398,-0.972668,-2.24842e-16,2284.79,824.327)">
            <path d="M665.028,65.001L698.6,135.954L631.456,135.954L665.028,65.001Z" style="stroke:rgb(235,235,235);stroke-width:0.5px;"/>
        </g>
    </g>
    <g transform="matrix(1,0,0,1,-86.461,-156.922)">
        <g transform="matrix(1,0,0,1,381.928,1024.14)">
            <text x="0px" y="0px" style="font-family:'Avenir-Black', 'Avenir', sans-serif;font-weight:800;font-size:100px;fill:rgb(0,0,9);">traditional data</text>
        </g>
        <g transform="matrix(1,0,0,1,1111.53,1024.14)">
            <text x="0px" y="0px" style="font-family:'Avenir-Roman', 'Avenir', sans-serif;font-size:100px;">:</text>
        </g>
        <g transform="matrix(1,0,0,1,381.928,1107.47)">
            <text x="0px" y="0px" style="font-family:'Avenir-Roman', 'Avenir', sans-serif;font-size:83.333px;">price, accounting, risk</text>
        </g>
    </g>
    <g transform="matrix(1,0,0,1,885.857,-167.475)">
        <g>
            <g transform="matrix(1,0,0,1,381.928,1024.14)">
                <text x="0px" y="0px" style="font-family:'Avenir-Black', 'Avenir', sans-serif;font-weight:800;font-size:100px;fill:rgb(0,17,0);">alter</text>
            </g>
            <g transform="matrix(1,0,0,1,602.228,1024.14)">
                <text x="0px" y="0px" style="font-family:'Avenir-Black', 'Avenir', sans-serif;font-weight:800;font-size:100px;fill:rgb(0,17,0);">native data</text>
            </g>
        </g>
        <g transform="matrix(1,0,0,1,1133.73,1024.14)">
            <text x="0px" y="0px" style="font-family:'Avenir-Roman', 'Avenir', sans-serif;font-size:100px;">:</text>
        </g>
        <g transform="matrix(1,0,0,1,381.928,1107.47)">
            <text x="0px" y="0px" style="font-family:'Avenir-Roman', 'Avenir', sans-serif;font-size:83.333px;">text, image, social media</text>
        </g>
    </g>
    <g transform="matrix(1,0,0,1,888.356,-715.476)">
        <g>
            <g transform="matrix(1,0,0,1,381.928,1024.14)">
                <text x="0px" y="0px" style="font-family:'Avenir-Black', 'Avenir', sans-serif;font-weight:800;font-size:100px;fill:rgb(0,17,0);">alter</text>
            </g>
            <g transform="matrix(1,0,0,1,602.228,1024.14)">
                <text x="0px" y="0px" style="font-family:'Avenir-Black', 'Avenir', sans-serif;font-weight:800;font-size:100px;fill:rgb(0,17,0);">native data</text>
            </g>
        </g>
        <g transform="matrix(1,0,0,1,1133.73,1024.14)">
            <text x="0px" y="0px" style="font-family:'Avenir-Roman', 'Avenir', sans-serif;font-size:100px;">:</text>
        </g>
        <g transform="matrix(1,0,0,1,381.928,1107.47)">
            <text x="0px" y="0px" style="font-family:'Avenir-Roman', 'Avenir', sans-serif;font-size:83.333px;">text, image, social media</text>
        </g>
    </g>
    <g transform="matrix(1,0,0,1,-86.6992,88.0145)">
        <g transform="matrix(1,0,0,1,381.928,1024.14)">
            <text x="0px" y="0px" style="font-family:'Avenir-Black', 'Avenir', sans-serif;font-weight:800;font-size:100px;fill:rgb(0,0,9);">traditional method</text>
        </g>
        <g transform="matrix(1,0,0,1,1266.93,1024.14)">
            <text x="0px" y="0px" style="font-family:'Avenir-Roman', 'Avenir', sans-serif;font-size:100px;">:</text>
        </g>
        <g transform="matrix(1,0,0,1,381.928,1107.47)">
            <text x="0px" y="0px" style="font-family:'Avenir-Roman', 'Avenir', sans-serif;font-size:83.333px;">stats &amp; econometrics</text>
        </g>
    </g>
    <g transform="matrix(1,0,0,1,880.12,85.5854)">
        <g transform="matrix(1,0,0,1,381.928,1024.14)">
            <text x="0px" y="0px" style="font-family:'Avenir-Black', 'Avenir', sans-serif;font-weight:800;font-size:100px;fill:rgb(0,0,9);">traditional method</text>
        </g>
        <g transform="matrix(1,0,0,1,1266.93,1024.14)">
            <text x="0px" y="0px" style="font-family:'Avenir-Roman', 'Avenir', sans-serif;font-size:100px;">:</text>
        </g>
        <g transform="matrix(1,0,0,1,381.928,1107.47)">
            <text x="0px" y="0px" style="font-family:'Avenir-Roman', 'Avenir', sans-serif;font-size:83.333px;">stats &amp; econometrics</text>
        </g>
    </g>
    <g transform="matrix(1,0,0,1,-93.9302,-710.369)">
        <g transform="matrix(1,0,0,1,381.928,1024.14)">
            <text x="0px" y="0px" style="font-family:'Avenir-Black', 'Avenir', sans-serif;font-weight:800;font-size:100px;fill:rgb(0,0,9);">traditional data</text>
        </g>
        <g transform="matrix(1,0,0,1,1111.53,1024.14)">
            <text x="0px" y="0px" style="font-family:'Avenir-Roman', 'Avenir', sans-serif;font-size:100px;">:</text>
        </g>
        <g transform="matrix(1,0,0,1,381.928,1107.47)">
            <text x="0px" y="0px" style="font-family:'Avenir-Roman', 'Avenir', sans-serif;font-size:83.333px;">price, accounting, risk</text>
        </g>
    </g>
    <g transform="matrix(1,0,0,1,-94.1685,-465.432)">
        <g>
            <g transform="matrix(1,0,0,1,381.928,1024.14)">
                <text x="0px" y="0px" style="font-family:'Avenir-Black', 'Avenir', sans-serif;font-weight:800;font-size:100px;">moder</text>
            </g>
            <g transform="matrix(1,0,0,1,692.828,1024.14)">
                <text x="0px" y="0px" style="font-family:'Avenir-Black', 'Avenir', sans-serif;font-weight:800;font-size:100px;">n method</text>
            </g>
        </g>
        <g transform="matrix(1,0,0,1,1146.33,1024.14)">
            <text x="0px" y="0px" style="font-family:'Avenir-Roman', 'Avenir', sans-serif;font-size:100px;fill:rgb(8,6,5);">:</text>
        </g>
        <g transform="matrix(1,0,0,1,381.928,1107.47)">
            <text x="0px" y="0px" style="font-family:'Avenir-Roman', 'Avenir', sans-serif;font-size:83.333px;">machine learning</text>
        </g>
    </g>
    <g transform="matrix(1,0,0,1,889.743,-465.025)">
        <g>
            <g transform="matrix(1,0,0,1,381.928,1024.14)">
                <text x="0px" y="0px" style="font-family:'Avenir-Black', 'Avenir', sans-serif;font-weight:800;font-size:100px;fill:rgb(0,17,0);">moder</text>
            </g>
            <g transform="matrix(1,0,0,1,692.828,1024.14)">
                <text x="0px" y="0px" style="font-family:'Avenir-Black', 'Avenir', sans-serif;font-weight:800;font-size:100px;fill:rgb(0,17,0);">n method</text>
            </g>
        </g>
        <g transform="matrix(1,0,0,1,1146.33,1024.14)">
            <text x="0px" y="0px" style="font-family:'Avenir-Roman', 'Avenir', sans-serif;font-size:100px;fill:rgb(8,6,5);">:</text>
        </g>
        <g transform="matrix(1,0,0,1,381.928,1107.47)">
            <text x="0px" y="0px" style="font-family:'Avenir-Roman', 'Avenir', sans-serif;font-size:83.333px;">machine learning, NLP</text>
        </g>
    </g>
</svg>
