<?xml version="1.0" encoding="UTF-8" standalone="no"?>
<!DOCTYPE svg PUBLIC "-//W3C//DTD SVG 1.1//EN" "http://www.w3.org/Graphics/SVG/1.1/DTD/svg11.dtd">
<svg width="100%" height="100%" viewBox="0 0 397 136" version="1.1" xmlns="http://www.w3.org/2000/svg" xmlns:xlink="http://www.w3.org/1999/xlink" xml:space="preserve" xmlns:serif="http://www.serif.com/" style="fill-rule:evenodd;clip-rule:evenodd;stroke-linecap:round;stroke-linejoin:round;stroke-miterlimit:10;">
    <g transform="matrix(1,0,0,1,0,-26.8199)">
        <path d="M62.202,52.779C62.202,48.554 59.128,45.124 55.341,45.124L9.721,45.124C5.935,45.124 2.861,48.554 2.861,52.779L2.861,110.041C2.861,114.266 5.935,117.696 9.721,117.696L55.341,117.696C59.128,117.696 62.202,114.266 62.202,110.041L62.202,52.779Z" style="fill:rgb(235,235,235);"/>
    </g>
    <g transform="matrix(1,0,0,1,0,-26.8201)">
        <path d="M143.425,55.766C143.425,50.214 139.522,45.706 134.715,45.706L94.808,45.706C90,45.706 86.097,50.214 86.097,55.766L86.097,107.054C86.097,112.606 90,117.114 94.808,117.114L134.715,117.114C139.522,117.114 143.425,112.606 143.425,107.054L143.425,55.766Z" style="fill:rgb(235,235,235);"/>
    </g>
    <g transform="matrix(1,0,0,1,0,-25.7322)">
        <path d="M395.099,48.452C395.099,44.432 392.031,41.169 388.251,41.169L341.893,41.169C338.113,41.169 335.045,44.432 335.045,48.452L335.045,113.281C335.045,117.3 338.113,120.563 341.893,120.563L388.251,120.563C392.031,120.563 395.099,117.3 395.099,113.281L395.099,48.452Z" style="fill:rgb(235,235,235);"/>
    </g>
    <g transform="matrix(1,0,0,1,0,-34.3986)">
        <path d="M236.659,76.481C236.659,71.67 232.563,67.764 227.52,67.764L183.515,67.764C178.472,67.764 174.376,71.67 174.376,76.481L174.376,93.917C174.376,98.729 178.472,102.635 183.515,102.635L227.52,102.635C232.563,102.635 236.659,98.729 236.659,93.917L236.659,76.481Z" style="fill:rgb(235,235,235);"/>
    </g>
    <g transform="matrix(1,0,0,1,0,-105.12)">
        <path d="M236.658,114.824C236.658,111.658 234.24,109.088 231.262,109.088L179.772,109.088C176.793,109.088 174.376,111.658 174.376,114.824L174.376,126.296C174.376,129.461 176.793,132.032 179.772,132.032L231.262,132.032C234.24,132.032 236.658,129.461 236.658,126.296L236.658,114.824Z" style="fill:rgb(235,235,235);"/>
    </g>
    <g transform="matrix(1,0,0,1,0,36.1001)">
        <path d="M236.658,44.214C236.658,41.048 234.24,38.478 231.262,38.478L179.771,38.478C176.793,38.478 174.376,41.048 174.376,44.214L174.376,55.686C174.376,58.852 176.793,61.422 179.771,61.422L231.262,61.422C234.24,61.422 236.658,58.852 236.658,55.686L236.658,44.214Z" style="fill:rgb(235,235,235);"/>
    </g>
    <g>
        <text x="180.897px" y="49.203px" style="font-family:'Avenir-Book', 'Avenir';font-size:12px;">V<tspan x="187.569px 193.797px " y="49.203px 49.203px ">al</tspan>idati</text>
        <text x="219.981px" y="49.203px" style="font-family:'Avenir-Book', 'Avenir';font-size:12px;">n<tspan x="225.903px " y="49.203px ">g</tspan></text>
        <text x="191.174px" y="61.203px" style="font-family:'Avenir-Book', 'Avenir';font-size:10px;">(</text>
        <text x="193.574px" y="61.203px" style="font-family:'Avenir-Book', 'Avenir';font-size:10px;">t</text>
        <text x="196.124px" y="61.203px" style="font-family:'Avenir-Book', 'Avenir';font-size:10px;">u</text>
        <text x="201.684px" y="61.203px" style="font-family:'Avenir-Book', 'Avenir';font-size:10px;">n<tspan x="207.044px 209.244px 214.604px 220.514px " y="61.203px 61.203px 61.203px 61.203px ">ing)</tspan></text>
    </g>
    <g>
        <text x="21.228px" y="11.09px" style="font-family:'Avenir-Black', 'Avenir', sans-serif;font-weight:800;font-size:12px;">Data</text>
        <text x="6.55px" y="37.03px" style="font-family:'Avenir-Book', 'Avenir';font-size:11px;">Price</text>
        <text x="6.55px" y="53.53px" style="font-family:'Avenir-Book', 'Avenir';font-size:11px;">Accounti</text>
        <text x="49.747px" y="53.53px" style="font-family:'Avenir-Book', 'Avenir';font-size:11px;">n<tspan x="55.263px " y="53.53px ">g</tspan></text>
        <text x="6.55px" y="70.03px" style="font-family:'Avenir-Book', 'Avenir';font-size:11px;">Sentiment</text>
        <text x="6.55px" y="86.53px" style="font-family:'Avenir-Book', 'Avenir';font-size:11px;">Altern<tspan x="36.278px " y="86.53px ">a</tspan>tive</text>
    </g>
    <g>
        <text x="86.213px" y="11.069px" style="font-family:'Avenir-Black', 'Avenir', sans-serif;font-weight:800;font-size:12px;">P</text>
        <text x="93.772px" y="11.069px" style="font-family:'Avenir-Black', 'Avenir', sans-serif;font-weight:800;font-size:12px;">r</text>
        <text x="98.641px" y="11.069px" style="font-family:'Avenir-Black', 'Avenir', sans-serif;font-weight:800;font-size:12px;">ocessi</text>
        <text x="132.872px" y="11.069px" style="font-family:'Avenir-Black', 'Avenir', sans-serif;font-weight:800;font-size:12px;">n<tspan x="139.531px " y="11.069px ">g</tspan></text>
        <text x="95.645px" y="37.019px" style="font-family:'Avenir-Book', 'Avenir';font-size:11px;">Missing</text>
        <text x="95.645px" y="53.519px" style="font-family:'Avenir-Book', 'Avenir';font-size:11px;">Outliers</text>
        <text x="95.645px" y="70.019px" style="font-family:'Avenir-Book', 'Avenir';font-size:11px;">Featu</text>
    </g>
    <g>
        <text x="119.278px" y="70.019px" style="font-family:'Avenir-Book', 'Avenir';font-size:11px;">r</text>
        <text x="122.932px" y="70.019px" style="font-family:'Avenir-Book', 'Avenir';font-size:11px;">es</text>
        <text x="95.645px" y="86.519px" style="font-family:'Avenir-Book', 'Avenir';font-size:11px;">Labels</text>
    </g>
    <g>
        <text x="185.969px" y="18.503px" style="font-family:'Avenir-Book', 'Avenir';font-size:11.238px;">T<tspan x="191.386px 195.117px " y="18.503px 18.503px ">ra</tspan>ini</text>
        <text x="212.593px" y="18.503px" style="font-family:'Avenir-Book', 'Avenir';font-size:11.238px;">n<tspan x="218.141px " y="18.503px ">g</tspan></text>
    </g>
    <g>
        <text x="178.442px" y="89.124px" style="font-family:'Avenir-Book', 'Avenir';font-size:11.238px;">Ensembl</text>
        <text x="221.527px" y="89.124px" style="font-family:'Avenir-Book', 'Avenir';font-size:11.238px;">e<tspan x="227.326px " y="89.124px ">?</tspan></text>
    </g>
    <text x="275.148px" y="10.345px" style="font-family:'Avenir-Black', 'Avenir', sans-serif;font-weight:800;font-size:10.302px;">Algos</text>
    <g>
        <text x="344.089px" y="9.851px" style="font-family:'Avenir-Black', 'Avenir', sans-serif;font-weight:800;font-size:10.302px;">T</text>
        <text x="350.009px" y="9.851px" style="font-family:'Avenir-Black', 'Avenir', sans-serif;font-weight:800;font-size:10.302px;">esting</text>
    </g>
    <g>
        <text x="331.971px" y="132.31px" style="font-family:'Avenir-Black', 'Avenir', sans-serif;font-weight:800;font-size:10.302px;">Perform<tspan x="371.819px " y="132.31px ">a</tspan>n</text>
        <text x="383.264px" y="132.31px" style="font-family:'Avenir-Black', 'Avenir', sans-serif;font-weight:800;font-size:10.302px;">c<tspan x="387.879px " y="132.31px ">e</tspan></text>
    </g>
    <g>
        <text x="249.84px" y="132.248px" style="font-family:'Avenir-Black', 'Avenir', sans-serif;font-weight:800;font-size:10.302px;">Feedba</text>
        <text x="286.288px" y="132.248px" style="font-family:'Avenir-Black', 'Avenir', sans-serif;font-weight:800;font-size:10.302px;">c<tspan x="290.904px " y="132.248px ">k</tspan></text>
    </g>
    <text x="178.86px" y="131.135px" style="font-family:'Avenir-Black', 'Avenir', sans-serif;font-weight:800;font-size:10.302px;">Update</text>
    <g>
        <text x="291.789px" y="34.547px" style="font-family:'Avenir-Book', 'Avenir';font-size:11px;">T</text>
        <text x="297.091px" y="34.547px" style="font-family:'Avenir-Book', 'Avenir';font-size:11px;">r</text>
        <text x="300.745px" y="34.547px" style="font-family:'Avenir-Book', 'Avenir';font-size:11px;">ees</text>
        <text x="291.789px" y="55.547px" style="font-family:'Avenir-Book', 'Avenir';font-size:11px;">NNs</text>
        <text x="291.789px" y="76.547px" style="font-family:'Avenir-Book', 'Avenir';font-size:11px;">S<tspan x="298.056px 304.929px " y="76.547px 76.547px ">VM</tspan></text>
        <text x="314.87px" y="76.547px" style="font-family:'Avenir-Book', 'Avenir';font-size:11px;">s</text>
        <g transform="matrix(0.616606,0,0,1,122.654,0)">
            <text x="319.917px" y="77.496px" style="font-family:'HiraMinPro-W3', 'Hiragino Mincho Pro', serif;font-weight:300;font-size:79.982px;fill-opacity:0.51;">}</text>
        </g>
        <text x="340.16px" y="66.382px" style="font-family:'Avenir-Black', 'Avenir', sans-serif;font-weight:800;font-size:10.302px;">W<tspan x="350.849px 357.149px 360.215px 367.092px 373.392px 377.972px " y="66.382px 66.382px 66.382px 66.382px 66.382px 66.382px ">eights</tspan></text>
    </g>
    <g>
        <text x="341.04px" y="26.51px" style="font-family:'Avenir-Book', 'Avenir';font-size:11px;">P</text>
        <text x="347.354px" y="26.51px" style="font-family:'Avenir-Book', 'Avenir';font-size:11px;">r</text>
        <text x="351.008px" y="26.51px" style="font-family:'Avenir-Book', 'Avenir';font-size:11px;">edicti</text>
        <text x="378.079px" y="26.51px" style="font-family:'Avenir-Book', 'Avenir';font-size:11px;">o<tspan x="383.952px " y="26.51px ">n</tspan></text>
        <text x="351.545px" y="37.51px" style="font-family:'Avenir-Book', 'Avenir';font-size:9px;">(signal)</text>
    </g>
    <g>
        <text x="343.369px" y="79.48px" style="font-family:'Avenir-Book', 'Avenir';font-size:10px;">(important</text>
        <text x="355.579px" y="89.48px" style="font-family:'Avenir-Book', 'Avenir';font-size:10px;">step)</text>
    </g>
    <g transform="matrix(1,0,0,1,0,-30.2157)">
        <path d="M287.228,55.689C287.228,52.496 284.636,49.904 281.443,49.904L269.873,49.904C266.68,49.904 264.088,52.496 264.088,55.689L264.088,110.527C264.088,113.72 266.68,116.312 269.873,116.312L281.443,116.312C284.636,116.312 287.228,113.72 287.228,110.527L287.228,55.689Z" style="fill:rgb(243,243,243);stroke:black;stroke-width:0.55px;"/>
    </g>
    <g transform="matrix(1,0,0,1,0,-72.5926)">
        <path d="M276.437,96.35C275.919,96.299 275.397,96.299 274.879,96.35L274.645,97.587C274.148,97.662 273.662,97.793 273.195,97.976L272.377,97.024C271.902,97.239 271.451,97.501 271.028,97.806L271.44,98.994C271.048,99.309 270.692,99.667 270.379,100.06L269.196,99.646C268.893,100.07 268.632,100.525 268.417,101.001L269.365,101.823C269.183,102.292 269.053,102.781 268.978,103.279L267.747,103.514C267.695,104.035 267.695,104.559 267.747,105.079L268.978,105.315C269.053,105.813 269.183,106.301 269.365,106.77L268.417,107.592C268.632,108.068 268.893,108.523 269.196,108.947L270.379,108.533C270.692,108.927 271.048,109.284 271.44,109.599L271.028,110.787C271.451,111.092 271.902,111.354 272.377,111.57L273.195,110.617C273.662,110.8 274.148,110.931 274.645,111.007L274.879,112.243C275.397,112.294 275.919,112.294 276.437,112.243L276.671,111.007C277.168,110.931 277.654,110.8 278.121,110.617L278.939,111.57C279.413,111.354 279.865,111.092 280.288,110.787L279.876,109.599C280.268,109.284 280.623,108.927 280.937,108.533L282.12,108.947C282.423,108.523 282.684,108.068 282.899,107.592L281.95,106.77C282.133,106.301 282.263,105.813 282.338,105.315L283.569,105.079C283.62,104.559 283.62,104.035 283.569,103.514L282.338,103.279C282.263,102.781 282.133,102.292 281.95,101.823L282.899,101.001C282.684,100.525 282.423,100.07 282.12,99.646L280.937,100.06C280.623,99.667 280.268,99.309 279.876,98.994L280.288,97.806C279.865,97.501 279.413,97.239 278.939,97.024L278.121,97.976C277.654,97.793 277.168,97.662 276.671,97.587L276.437,96.35ZM275.658,102.7C276.535,102.7 277.248,103.416 277.248,104.297C277.248,105.178 276.535,105.894 275.658,105.894C274.78,105.894 274.068,105.178 274.068,104.297C274.068,103.416 274.78,102.7 275.658,102.7Z" style="fill:rgb(193,193,194);stroke:black;stroke-width:0.55px;"/>
    </g>
    <g transform="matrix(1,0,0,1,0,-31.1809)">
        <path d="M276.437,75.644C275.919,75.593 275.397,75.593 274.879,75.644L274.645,76.88C274.148,76.956 273.662,77.086 273.195,77.27L272.377,76.317C271.902,76.533 271.451,76.795 271.028,77.1L271.44,78.288C271.048,78.603 270.692,78.96 270.379,79.354L269.196,78.939C268.893,79.365 268.632,79.819 268.417,80.295L269.365,81.117C269.183,81.586 269.053,82.074 268.978,82.573L267.747,82.808C267.695,83.328 267.695,83.853 267.747,84.373L268.978,84.608C269.053,85.107 269.183,85.595 269.365,86.064L268.417,86.886C268.632,87.362 268.893,87.816 269.196,88.242L270.379,87.827C270.692,88.221 271.048,88.578 271.44,88.893L271.028,90.081C271.451,90.386 271.902,90.648 272.377,90.864L273.195,89.911C273.662,90.094 274.148,90.225 274.645,90.301L274.879,91.537C275.397,91.588 275.919,91.588 276.437,91.537L276.671,90.301C277.168,90.225 277.654,90.094 278.121,89.911L278.939,90.864C279.413,90.648 279.865,90.386 280.288,90.081L279.876,88.893C280.268,88.578 280.623,88.221 280.937,87.827L282.12,88.242C282.423,87.816 282.684,87.362 282.899,86.886L281.95,86.064C282.133,85.595 282.263,85.107 282.338,84.608L283.569,84.373C283.62,83.853 283.62,83.328 283.569,82.808L282.338,82.573C282.263,82.074 282.133,81.586 281.95,81.117L282.899,80.295C282.684,79.819 282.423,79.365 282.12,78.939L280.937,79.354C280.623,78.96 280.268,78.603 279.876,78.288L280.288,77.1C279.865,76.795 279.413,76.533 278.939,76.317L278.121,77.27C277.654,77.086 277.168,76.956 276.671,76.88L276.437,75.644ZM275.658,81.994C276.535,81.994 277.248,82.709 277.248,83.59C277.248,84.472 276.535,85.187 275.658,85.187C274.78,85.187 274.068,84.472 274.068,83.59C274.068,82.709 274.78,81.994 275.658,81.994Z" style="fill:rgb(160,209,230);stroke:black;stroke-width:0.55px;"/>
    </g>
    <g transform="matrix(1,0,0,1,0,9.7271)">
        <path d="M276.437,55.19C275.919,55.139 275.397,55.139 274.879,55.19L274.645,56.426C274.148,56.502 273.662,56.632 273.195,56.816L272.377,55.863C271.902,56.079 271.451,56.341 271.028,56.646L271.44,57.834C271.048,58.149 270.692,58.506 270.379,58.9L269.196,58.485C268.893,58.911 268.632,59.365 268.417,59.841L269.365,60.663C269.183,61.132 269.053,61.62 268.978,62.119L267.747,62.354C267.695,62.874 267.695,63.399 267.747,63.919L268.978,64.154C269.053,64.653 269.183,65.141 269.365,65.61L268.417,66.432C268.632,66.908 268.893,67.362 269.196,67.787L270.379,67.373C270.692,67.767 271.048,68.124 271.44,68.439L271.028,69.627C271.451,69.932 271.902,70.194 272.377,70.41L273.195,69.457C273.662,69.64 274.148,69.771 274.645,69.847L274.879,71.083C275.397,71.134 275.919,71.134 276.437,71.083L276.671,69.847C277.168,69.771 277.654,69.64 278.121,69.457L278.939,70.41C279.413,70.194 279.865,69.932 280.288,69.627L279.876,68.439C280.268,68.124 280.623,67.767 280.937,67.373L282.12,67.787C282.423,67.362 282.684,66.908 282.899,66.432L281.95,65.61C282.133,65.141 282.263,64.653 282.338,64.154L283.569,63.919C283.62,63.399 283.62,62.874 283.569,62.354L282.338,62.119C282.263,61.62 282.133,61.132 281.95,60.663L282.899,59.841C282.684,59.365 282.423,58.911 282.12,58.485L280.937,58.9C280.623,58.506 280.268,58.149 279.876,57.834L280.288,56.646C279.865,56.341 279.413,56.079 278.939,55.863L278.121,56.816C277.654,56.632 277.168,56.502 276.671,56.426L276.437,55.19ZM275.658,61.539C276.535,61.539 277.248,62.255 277.248,63.136C277.248,64.018 276.535,64.733 275.658,64.733C274.78,64.733 274.068,64.018 274.068,63.136C274.068,62.255 274.78,61.539 275.658,61.539Z" style="fill:rgb(168,205,175);stroke:black;stroke-width:0.55px;"/>
    </g>
    <g transform="matrix(1,0,0,1,0,-26.82)">
        <path d="M66.04,85.824L66.04,76.996L72.501,76.996L72.501,72.688L81.223,81.41L72.501,90.132L72.501,85.824L66.04,85.824Z" style="fill:rgb(147,149,152);"/>
    </g>
    <g transform="matrix(1,0,0,1,0,-26.1569)">
        <path d="M148.079,83.34L148.079,78.817L164.78,78.817L164.78,74.617L171.242,81.078L164.78,87.54L164.78,83.34L148.079,83.34Z" style="fill:rgb(147,149,152);"/>
    </g>
    <g transform="matrix(1,0,0,1,0,-11.419)">
        <path d="M146.972,67.928L150.166,64.725L161.992,76.517L164.958,73.543L164.971,82.681L155.834,82.694L158.799,79.72L146.972,67.928Z" style="fill:rgb(147,149,152);"/>
    </g>
    <g transform="matrix(1,0,0,1,0,-42.1681)">
        <path d="M149.758,97.871L146.774,94.471L159.327,83.454L156.556,80.297L165.675,80.891L165.081,90.01L162.31,86.853L149.758,97.871Z" style="fill:rgb(147,149,152);"/>
    </g>
    <g transform="matrix(1,0,0,1,0,-32.3925)">
        <path d="M240.188,85.906L240.181,82.545L255.708,82.516L255.702,79.395L260.512,84.187L255.72,88.998L255.715,85.877L240.188,85.906Z" style="fill:rgb(147,149,152);"/>
    </g>
    <g transform="matrix(1,0,0,1,0,120.832)">
        <path d="M323.894,5.884L323.901,9.242L312.726,9.263L312.732,12.382L307.925,7.593L312.714,2.787L312.719,5.905L323.894,5.884Z" style="fill:rgb(209,211,212);"/>
    </g>
    <g transform="matrix(1,0,0,1,0,82.6904)">
        <path d="M356.135,15.108L359.655,16.486L353.492,32.161L356.759,33.442L349.086,38.202L346.705,29.501L349.972,30.783L356.135,15.108Z" style="fill:rgb(209,211,212);"/>
    </g>
    <g transform="matrix(1,0,0,1,0,120.832)">
        <path d="M240.376,5.857L240.382,9.273L230.187,9.292L230.193,12.465L225.303,7.593L230.175,2.704L230.181,5.876L240.376,5.857Z" style="fill:rgb(209,211,212);"/>
    </g>
    <g transform="matrix(1,0,0,1,0,-35.6558)">
        <rect x="247.52" y="49.63" width="3.482" height="72.395" style="fill:rgb(147,149,152);"/>
    </g>
    <g transform="matrix(1,0,0,1,0,-107.466)">
        <rect x="240.113" y="119.992" width="10.871" height="3.482" style="fill:rgb(147,149,152);"/>
    </g>
    <g transform="matrix(1,0,0,1,0,35.4425)">
        <rect x="240.13" y="48.538" width="10.871" height="3.482" style="fill:rgb(147,149,152);"/>
    </g>
    <g transform="matrix(1,0,0,1,0,64.9689)">
        <path d="M307.714,43.412L304.352,43.419L304.33,32.417L301.209,32.423L306.001,27.612L310.813,32.404L307.691,32.41L307.714,43.412Z" style="fill:rgb(209,211,212);"/>
    </g>
    <g transform="matrix(1,0,0,1,0,66.0819)">
        <path d="M119.518,42.856L116.156,42.863L116.134,31.86L113.013,31.867L117.805,27.055L122.617,31.847L119.495,31.853L119.518,42.856Z" style="fill:rgb(209,211,212);"/>
    </g>
    <g transform="matrix(1,0,0,1,0,65.5739)">
        <path d="M37.274,43.11L33.912,43.117L33.89,32.114L30.769,32.121L35.561,27.309L40.373,32.101L37.251,32.107L37.274,43.11Z" style="fill:rgb(209,211,212);"/>
    </g>
    <g transform="matrix(0.000318502,1,1,-0.000318502,144.452,-61.1143)">
        <rect x="169.245" y="-110.592" width="3.14" height="273.8" style="fill:rgb(209,211,212);"/>
    </g>
    <g transform="matrix(1,0,0,1,0,-37.3973)">
        <path d="M361.183,78.766L366.51,78.781L366.503,85.849L369.199,85.857L363.83,94.631L358.48,85.827L361.176,85.835L361.183,78.766Z" style="fill:rgb(147,149,152);"/>
    </g>
    <g transform="matrix(1,0,0,1,0,92.9884)">
        <rect x="197.467" y="16.473" width="3.019" height="10.066" style="fill:rgb(209,211,212);"/>
    </g>
</svg>
