<?xml version="1.0" encoding="UTF-8" standalone="no"?>
<!DOCTYPE svg PUBLIC "-//W3C//DTD SVG 1.1//EN" "http://www.w3.org/Graphics/SVG/1.1/DTD/svg11.dtd">
<svg width="100%" height="100%" viewBox="0 0 470 345" version="1.1" xmlns="http://www.w3.org/2000/svg" xmlns:xlink="http://www.w3.org/1999/xlink" xml:space="preserve" xmlns:serif="http://www.serif.com/" style="fill-rule:evenodd;clip-rule:evenodd;stroke-linejoin:round;stroke-miterlimit:10;">
    <g transform="matrix(1,0,0,1,0,11.5378)">
        <rect x="26.965" y="23.191" width="435.36" height="287.08" style="fill:rgb(235,235,235);"/>
    </g>
    <g transform="matrix(1,0,0,1,0,232.458)">
        <path d="M26.965,56.271L462.335,56.271" style="fill:none;fill-rule:nonzero;stroke:white;stroke-width:0.53px;"/>
    </g>
    <g transform="matrix(1,0,0,1,0,42.218)">
        <path d="M26.965,151.391L462.335,151.391" style="fill:none;fill-rule:nonzero;stroke:white;stroke-width:0.53px;"/>
    </g>
    <g transform="matrix(1,0,0,1,0,-148.002)">
        <path d="M26.965,246.501L462.335,246.501" style="fill:none;fill-rule:nonzero;stroke:white;stroke-width:0.53px;"/>
    </g>
    <g transform="matrix(0,-1,-1,0,245.801,257.329)">
        <path d="M-64.48,166.736L222.61,166.736" style="fill:none;fill-rule:nonzero;stroke:white;stroke-width:0.53px;"/>
    </g>
    <g transform="matrix(0,-1,-1,0,326.571,338.099)">
        <path d="M16.29,166.736L303.38,166.736" style="fill:none;fill-rule:nonzero;stroke:white;stroke-width:0.53px;"/>
    </g>
    <g transform="matrix(0,-1,-1,0,407.351,418.879)">
        <path d="M97.07,166.736L384.16,166.736" style="fill:none;fill-rule:nonzero;stroke:white;stroke-width:0.53px;"/>
    </g>
    <g transform="matrix(0,-1,-1,0,488.121,499.649)">
        <path d="M177.84,166.736L464.93,166.736" style="fill:none;fill-rule:nonzero;stroke:white;stroke-width:0.53px;"/>
    </g>
    <g transform="matrix(0,-1,-1,0,568.891,580.419)">
        <path d="M258.61,166.736L545.7,166.736" style="fill:none;fill-rule:nonzero;stroke:white;stroke-width:0.53px;"/>
    </g>
    <g transform="matrix(1,0,0,1,0,137.338)">
        <path d="M26.965,103.831L462.335,103.831" style="fill:none;fill-rule:nonzero;stroke:white;stroke-width:1.07px;"/>
    </g>
    <g transform="matrix(1,0,0,1,0,-52.882)">
        <path d="M26.965,198.941L462.335,198.941" style="fill:none;fill-rule:nonzero;stroke:white;stroke-width:1.07px;"/>
    </g>
    <g transform="matrix(1,0,0,1,0,-243.122)">
        <path d="M26.965,294.061L462.335,294.061" style="fill:none;fill-rule:nonzero;stroke:white;stroke-width:1.07px;"/>
    </g>
    <g transform="matrix(0,-1,-1,0,205.411,216.939)">
        <path d="M-104.87,166.736L182.22,166.736" style="fill:none;fill-rule:nonzero;stroke:white;stroke-width:1.07px;"/>
    </g>
    <g transform="matrix(0,-1,-1,0,286.191,297.719)">
        <path d="M-24.09,166.736L263,166.736" style="fill:none;fill-rule:nonzero;stroke:white;stroke-width:1.07px;"/>
    </g>
    <g transform="matrix(0,-1,-1,0,366.961,378.489)">
        <path d="M56.68,166.736L343.77,166.736" style="fill:none;fill-rule:nonzero;stroke:white;stroke-width:1.07px;"/>
    </g>
    <g transform="matrix(0,-1,-1,0,447.731,459.259)">
        <path d="M137.45,166.736L424.54,166.736" style="fill:none;fill-rule:nonzero;stroke:white;stroke-width:1.07px;"/>
    </g>
    <g transform="matrix(0,-1,-1,0,528.501,540.029)">
        <path d="M218.22,166.736L505.31,166.736" style="fill:none;fill-rule:nonzero;stroke:white;stroke-width:1.07px;"/>
    </g>
    <g transform="matrix(0,-1,-1,0,609.281,620.809)">
        <path d="M299,166.736L586.09,166.736" style="fill:none;fill-rule:nonzero;stroke:white;stroke-width:1.07px;"/>
    </g>
    <g transform="matrix(1,0,0,1,0,2.1443)">
        <path d="M323.432,142.575L329.703,96.758L337.773,97.568L345.853,177.798L353.933,243.668L362.003,174.258L370.083,209.738L378.163,147.978L386.243,132.638L394.313,133.168L402.393,122.888L410.473,248.308L418.553,197.678L426.623,94.548L434.703,136.988L442.783,176.538" style="fill:none;fill-rule:nonzero;stroke:rgb(89,175,135);stroke-width:1.71px;"/>
    </g>
    <g transform="matrix(0,1,1,0,156.906,-144.718)">
        <path d="M182.733,166.406L463.891,166.406" style="fill:none;fill-rule:nonzero;stroke:rgb(238,34,74);stroke-width:2px;stroke-linecap:round;stroke-dasharray:4,4;"/>
    </g>
    <g transform="matrix(1,0,0,1,0,27.3379)">
        <path d="M46.755,247.621L54.835,272.831L62.915,213.511L70.985,195.721L79.065,168.461L87.145,113.441L95.225,173.021L103.295,152.611L111.375,185.181L119.455,143.271L127.525,108.431L135.605,118.201L143.685,128.851L151.765,163.841L159.835,216.351L167.915,146.411L175.995,154.321L184.075,238.231L192.145,244.831L200.225,182.001L208.305,195.871L216.375,166.931L224.455,207.381L232.535,192.131L240.615,194.601L248.685,162.181L256.765,161.191L264.845,122.581L272.915,148.931L280.995,138.191L289.075,44.831L297.155,68.021L305.225,139.401L313.305,226.101L321.385,169.231L329.465,108.041L337.535,93.851L345.615,189.081L353.695,197.951L361.765,185.541L369.845,222.021L377.925,161.261L386.005,175.921L394.075,144.451L402.155,158.171L410.235,198.591L418.315,122.961L426.385,56.831L434.465,148.271L442.545,207.821" style="fill:none;fill-rule:nonzero;stroke:black;stroke-width:1.71px;"/>
    </g>
    <g transform="matrix(1,0,0,1,0,28.5279)">
        <path d="M46.755,207.911L54.835,144.471L62.915,228.861L70.985,187.561L79.065,207.081L87.145,177.551L95.225,267.201L103.295,235.671L111.375,163.601L119.455,146.781L127.525,115.161L135.605,217.541L143.685,189.961L151.765,243.881L159.835,196.911L167.915,209.251L175.995,193.341L184.075,203.341L192.145,217.601L200.225,189.021L208.305,201.371L216.375,174.421L224.455,209.681L232.535,172.781L240.615,140.711L248.685,193.221L256.765,239.601L264.845,119.241L272.915,179.281L280.995,179.981L289.075,172.621L297.155,136.991L305.225,114.931L313.305,62.391L321.385,32.241L329.465,119.791L337.535,170.011L345.615,137.611L353.695,160.541L361.765,205.051L369.845,206.431L377.925,284.231L386.005,224.391L394.075,223.181L402.155,185.851L410.235,122.821L418.315,121.281L426.385,104.401L434.465,128.261L442.545,165.261" style="fill:none;fill-rule:nonzero;stroke:rgb(97,130,155);stroke-width:4px;stroke-dasharray:4,4;"/>
    </g>
    <g transform="matrix(1,0,0,1,0,137.338)">
        <path d="M24.225,103.831L26.965,103.831" style="fill:none;fill-rule:nonzero;stroke:rgb(51,51,51);stroke-width:1.07px;"/>
    </g>
    <g transform="matrix(1,0,0,1,0,-52.882)">
        <path d="M24.225,198.941L26.965,198.941" style="fill:none;fill-rule:nonzero;stroke:rgb(51,51,51);stroke-width:1.07px;"/>
    </g>
    <g transform="matrix(1,0,0,1,0,-243.122)">
        <path d="M24.225,294.061L26.965,294.061" style="fill:none;fill-rule:nonzero;stroke:rgb(51,51,51);stroke-width:1.07px;"/>
    </g>
    <g transform="matrix(0,-1,-1,0,60.4959,361.854)">
        <path d="M37.305,21.821L40.045,21.821" style="fill:none;fill-rule:nonzero;stroke:rgb(51,51,51);stroke-width:1.07px;"/>
    </g>
    <g transform="matrix(0,-1,-1,0,141.276,442.634)">
        <path d="M118.085,21.821L120.825,21.821" style="fill:none;fill-rule:nonzero;stroke:rgb(51,51,51);stroke-width:1.07px;"/>
    </g>
    <g transform="matrix(0,-1,-1,0,222.046,523.404)">
        <path d="M198.855,21.821L201.595,21.821" style="fill:none;fill-rule:nonzero;stroke:rgb(51,51,51);stroke-width:1.07px;"/>
    </g>
    <g transform="matrix(0,-1,-1,0,302.816,604.174)">
        <path d="M279.625,21.821L282.365,21.821" style="fill:none;fill-rule:nonzero;stroke:rgb(51,51,51);stroke-width:1.07px;"/>
    </g>
    <g transform="matrix(0,-1,-1,0,383.586,684.944)">
        <path d="M360.395,21.821L363.135,21.821" style="fill:none;fill-rule:nonzero;stroke:rgb(51,51,51);stroke-width:1.07px;"/>
    </g>
    <g transform="matrix(0,-1,-1,0,464.366,765.724)">
        <path d="M441.175,21.821L443.915,21.821" style="fill:none;fill-rule:nonzero;stroke:rgb(51,51,51);stroke-width:1.07px;"/>
    </g>
    <g transform="matrix(1,0,0,1,0,-244.907)">
        <rect x="32.572" y="283.021" width="286.358" height="23.865" style="fill:rgb(186,201,231);"/>
    </g>
    <g transform="matrix(1,0,0,1,0,-244.907)">
        <rect x="327.145" y="283.021" width="132.232" height="23.865" style="fill:rgb(204,231,211);"/>
    </g>
    <text x="14.035px" y="245.399px" style="font-family:'Avenir-Book', 'Avenir';font-size:15px;fill:rgb(77,77,77);">0</text>
    <text x="3.035px" y="150.289px" style="font-family:'Avenir-Book', 'Avenir';font-size:15px;fill:rgb(77,77,77);">0.1</text>
    <text x="1.035px" y="55.169px" style="font-family:'Avenir-Book', 'Avenir';font-size:15px;fill:rgb(77,77,77);">0.2</text>
    <text x="34.175px" y="338.199px" style="font-family:'Avenir-Book', 'Avenir';font-size:15px;fill:rgb(77,77,77);">0</text>
    <text x="111.445px" y="338.199px" style="font-family:'Avenir-Book', 'Avenir';font-size:15px;fill:rgb(77,77,77);">10</text>
    <text x="192.225px" y="338.199px" style="font-family:'Avenir-Book', 'Avenir';font-size:15px;fill:rgb(77,77,77);">20</text>
    <text x="272.995px" y="338.199px" style="font-family:'Avenir-Book', 'Avenir';font-size:15px;fill:rgb(77,77,77);">30</text>
    <text x="353.765px" y="338.199px" style="font-family:'Avenir-Book', 'Avenir';font-size:15px;fill:rgb(77,77,77);">40</text>
    <g>
        <text x="434.535px" y="338.199px" style="font-family:'Avenir-Book', 'Avenir';font-size:15px;fill:rgb(77,77,77);">50</text>
        <text x="226.701px" y="339.832px" style="font-family:'Avenir-Black', 'Avenir', sans-serif;font-weight:800;font-size:15px;">time</text>
    </g>
    <g transform="matrix(0,-1,1,0,0,0)">
        <text x="-207.79px" y="17.626px" style="font-family:'Avenir-Black', 'Avenir', sans-serif;font-weight:800;font-size:15px;">v</text>
        <text x="-199.859px" y="17.626px" style="font-family:'Avenir-Black', 'Avenir', sans-serif;font-weight:800;font-size:15px;">alue</text>
    </g>
    <text x="126.071px" y="53.836px" style="font-family:'Avenir-Medium', 'Avenir';font-weight:500;font-size:15px;">training sample</text>
    <text x="343.588px" y="53.836px" style="font-family:'Avenir-Medium', 'Avenir';font-weight:500;font-size:15px;">testing sample</text>
    <text x="228.916px" y="29.809px" style="font-family:'Avenir-Medium', 'Avenir';font-weight:500;font-size:14px;fill:rgb(89,89,89);">memory transfer ?</text>
    <g>
        <text x="108.444px" y="294.41px" style="font-family:'Avenir-Black', 'Avenir', sans-serif;font-weight:800;font-size:16px;fill:rgb(97,130,155);">x = pr<tspan x="153.772px 162.956px " y="294.41px 294.41px ">ed</tspan>ictor</text>
        <text x="133.596px" y="310.41px" style="font-family:'Avenir-Black', 'Avenir', sans-serif;font-weight:800;font-size:16px;fill:rgb(97,130,155);">(characteristic)</text>
    </g>
    <text x="332.691px" y="88.431px" style="font-family:'Avenir-Medium', 'Avenir';font-weight:500;font-size:16px;fill:rgb(89,175,135);">pr<tspan x="348.099px 356.995px " y="88.431px 88.431px ">ed</tspan>ictions</text>
    <text x="43.365px" y="124.706px" style="font-family:'Avenir-Medium', 'Avenir';font-weight:500;font-size:16px;">y = label (r<tspan x="120.101px 128.997px " y="124.706px 124.706px ">et</tspan>urns)</text>
    <text x="217.658px" y="13.486px" style="font-family:'Avenir-Black', 'Avenir', sans-serif;font-weight:800;font-size:14px;fill:rgb(13,13,13);">generalization ability</text>
    <text x="319.426px" y="336.936px" style="font-family:'Avenir-Medium', 'Avenir';font-weight:500;font-size:18px;fill:rgb(228,3,3);">t</text>
    <g transform="matrix(1,0,0,1,0,-297.958)">
        <path d="M392.184,310.972L398.016,310.97L398.019,323.655L403.435,323.653L395.106,331.988L386.771,323.658L392.187,323.657L392.184,310.972Z" style="fill:rgb(204,231,211);"/>
    </g>
    <g transform="matrix(1,0,0,1,0,-312.844)">
        <rect x="363.336" y="325.93" width="34.729" height="5.984" style="fill:rgb(204,231,211);"/>
    </g>
    <g transform="matrix(0.000794195,1,1,-0.000794195,-146.249,-143.968)">
        <rect x="157.703" y="314.83" width="27.701" height="5.672" style="fill:rgb(186,201,231);"/>
    </g>
    <g transform="matrix(1,0,0,1,0,-312.843)">
        <path d="M169.874,331.636L169.874,326.207L204.257,326.207L204.257,321.165L212.014,328.921L204.257,336.678L204.257,331.636L169.874,331.636Z" style="fill:rgb(186,201,231);"/>
    </g>
</svg>
