<?xml version="1.0" encoding="UTF-8" standalone="no"?>
<!DOCTYPE svg PUBLIC "-//W3C//DTD SVG 1.1//EN" "http://www.w3.org/Graphics/SVG/1.1/DTD/svg11.dtd">
<svg width="100%" height="100%" viewBox="0 0 1182 1182" version="1.1" xmlns="http://www.w3.org/2000/svg" xmlns:xlink="http://www.w3.org/1999/xlink" xml:space="preserve" xmlns:serif="http://www.serif.com/" style="fill-rule:evenodd;clip-rule:evenodd;stroke-linecap:round;stroke-linejoin:round;stroke-miterlimit:1.5;">
    <g transform="matrix(1,0,0,1,-1,-314.976)">
        <path d="M885.049,859.406L944.882,944.882L614.173,1133.86L614.173,1015.75L885.049,859.406Z" style="fill:url(#_Linear1);stroke:white;stroke-width:2.5px;"/>
    </g>
    <g transform="matrix(0.994708,0,0,1,2.25,-314.976)">
        <path d="M307.255,856.089L614.173,1015.75L614.173,1133.86L236.22,944.882L307.255,856.089ZM614.173,472.441C614.173,472.441 614.173,472.441 614.173,472.441Z" style="fill:url(#_Linear2);stroke:white;stroke-width:2.51px;"/>
    </g>
    <g transform="matrix(0.924198,0,0,0.908732,67.4741,-279.007)">
        <path d="M614.173,472.441L614.173,1015.75L886.253,858.711L614.173,472.441Z" style="fill:url(#_Linear3);"/>
    </g>
    <g transform="matrix(0.924198,0,0,0.908732,26.8777,-279.007)">
        <path d="M614.173,472.441L307.087,856.001L614.173,1015.75L614.173,472.441Z" style="fill:url(#_Linear4);"/>
    </g>
    <g transform="matrix(1.3609,0,0,1.25887,-839.701,465.523)">
        <text x="643.398px" y="451.071px" style="font-family:'CocoGothic', 'Coco Gothic';font-size:228.38px;fill:rgb(47,45,46);">d<tspan x="761.927px 883.882px " y="451.071px 451.071px ">at</tspan></text>
        <text x="940.52px" y="451.071px" style="font-family:'CocoGothic', 'Coco Gothic';font-size:228.38px;fill:rgb(47,45,46);">a</text>
        <text x="1092.85px" y="451.071px" style="font-family:'CocoGothic', 'Coco Gothic';font-size:228.38px;fill:rgb(47,45,46);">d<tspan x="1211.38px " y="451.071px ">r</tspan></text>
        <text x="1284.69px" y="451.071px" style="font-family:'CocoGothic', 'Coco Gothic';font-size:228.38px;fill:rgb(47,45,46);">i</text>
        <text x="1329.91px" y="451.071px" style="font-family:'CocoGothic', 'Coco Gothic';font-size:228.38px;fill:rgb(47,45,46);">f<tspan x="1383.35px " y="451.071px ">t</tspan></text>
    </g>
    <defs>
        <linearGradient id="_Linear1" x1="0" y1="0" x2="1" y2="0" gradientUnits="userSpaceOnUse" gradientTransform="matrix(330.709,0,0,661.417,614.173,803.15)"><stop offset="0" style="stop-color:rgb(65,85,165);stop-opacity:1"/><stop offset="1" style="stop-color:rgb(0,173,77);stop-opacity:1"/></linearGradient>
        <linearGradient id="_Linear2" x1="0" y1="0" x2="1" y2="0" gradientUnits="userSpaceOnUse" gradientTransform="matrix(377.953,0,0,661.417,236.22,803.15)"><stop offset="0" style="stop-color:rgb(84,35,127);stop-opacity:1"/><stop offset="1" style="stop-color:rgb(65,84,165);stop-opacity:1"/></linearGradient>
        <linearGradient id="_Linear3" x1="0" y1="0" x2="1" y2="0" gradientUnits="userSpaceOnUse" gradientTransform="matrix(206.693,0,0,401.575,614.173,673.228)"><stop offset="0" style="stop-color:rgb(242,98,47);stop-opacity:1"/><stop offset="1" style="stop-color:rgb(255,243,37);stop-opacity:1"/></linearGradient>
        <linearGradient id="_Linear4" x1="0" y1="0" x2="1" y2="0" gradientUnits="userSpaceOnUse" gradientTransform="matrix(236.22,0,0,401.575,377.953,673.228)"><stop offset="0" style="stop-color:rgb(237,22,81);stop-opacity:1"/><stop offset="1" style="stop-color:rgb(242,100,33);stop-opacity:1"/></linearGradient>
    </defs>
</svg>
