<?xml version="1.0" encoding="UTF-8" standalone="no"?>
<!DOCTYPE svg PUBLIC "-//W3C//DTD SVG 1.1//EN" "http://www.w3.org/Graphics/SVG/1.1/DTD/svg11.dtd">
<svg width="100%" height="100%" viewBox="0 0 2363 2363" version="1.1" xmlns="http://www.w3.org/2000/svg" xmlns:xlink="http://www.w3.org/1999/xlink" xml:space="preserve" xmlns:serif="http://www.serif.com/" style="fill-rule:evenodd;clip-rule:evenodd;stroke-linejoin:round;stroke-miterlimit:2;">
    <g transform="matrix(1.3609,0,0,1.25887,-706.885,1156.6)">
        <g transform="matrix(400,0,0,400,643.398,451.071)">
            <path d="M0.505,-0.718L0.505,-0.025C0.505,-0.008 0.496,-0 0.477,-0L0.447,-0C0.428,-0 0.419,-0.008 0.419,-0.025L0.419,-0.066C0.402,-0.043 0.383,-0.025 0.36,-0.011C0.337,0.003 0.306,0.01 0.268,0.01C0.233,0.01 0.202,0.004 0.174,-0.01C0.145,-0.023 0.121,-0.041 0.101,-0.064C0.081,-0.087 0.066,-0.114 0.055,-0.145C0.044,-0.175 0.038,-0.209 0.038,-0.244C0.038,-0.279 0.044,-0.313 0.055,-0.344C0.066,-0.375 0.081,-0.401 0.101,-0.425C0.121,-0.448 0.145,-0.466 0.174,-0.479C0.202,-0.492 0.233,-0.499 0.268,-0.499C0.306,-0.499 0.337,-0.492 0.36,-0.477C0.383,-0.462 0.403,-0.443 0.419,-0.42L0.419,-0.718C0.419,-0.734 0.428,-0.742 0.447,-0.742L0.476,-0.742C0.485,-0.742 0.492,-0.74 0.497,-0.736C0.502,-0.731 0.505,-0.725 0.505,-0.718ZM0.427,-0.243C0.427,-0.266 0.423,-0.289 0.416,-0.31C0.409,-0.331 0.399,-0.349 0.386,-0.365C0.373,-0.38 0.357,-0.393 0.338,-0.402C0.319,-0.411 0.299,-0.415 0.276,-0.415C0.251,-0.415 0.23,-0.411 0.211,-0.402C0.192,-0.393 0.176,-0.38 0.163,-0.365C0.15,-0.349 0.141,-0.331 0.135,-0.31C0.128,-0.289 0.125,-0.266 0.125,-0.243C0.125,-0.22 0.128,-0.198 0.135,-0.177C0.141,-0.156 0.15,-0.138 0.163,-0.123C0.176,-0.107 0.192,-0.095 0.211,-0.086C0.23,-0.077 0.251,-0.072 0.276,-0.072C0.299,-0.072 0.319,-0.077 0.338,-0.086C0.356,-0.095 0.372,-0.107 0.385,-0.123C0.398,-0.138 0.409,-0.156 0.416,-0.177C0.423,-0.198 0.427,-0.22 0.427,-0.243Z" style="fill:rgb(55,148,98);fill-rule:nonzero;"/>
        </g>
        <g transform="matrix(400,0,0,400,850.998,451.071)">
            <path d="M0.43,-0.025L0.43,-0.072C0.415,-0.049 0.397,-0.03 0.374,-0.014C0.351,0.002 0.32,0.01 0.279,0.01C0.244,0.01 0.212,0.004 0.183,-0.01C0.154,-0.023 0.128,-0.041 0.107,-0.064C0.086,-0.087 0.069,-0.114 0.058,-0.145C0.046,-0.175 0.04,-0.209 0.04,-0.244C0.04,-0.279 0.046,-0.313 0.058,-0.344C0.069,-0.375 0.086,-0.401 0.107,-0.425C0.128,-0.448 0.153,-0.466 0.182,-0.479C0.211,-0.492 0.244,-0.499 0.279,-0.499C0.3,-0.499 0.318,-0.497 0.333,-0.492C0.348,-0.487 0.362,-0.481 0.374,-0.474C0.386,-0.466 0.397,-0.457 0.406,-0.447C0.415,-0.437 0.423,-0.427 0.43,-0.416L0.434,-0.466C0.435,-0.474 0.437,-0.48 0.44,-0.485C0.443,-0.489 0.449,-0.491 0.458,-0.491L0.487,-0.491C0.494,-0.491 0.501,-0.489 0.506,-0.485C0.511,-0.48 0.513,-0.474 0.513,-0.466L0.513,-0.022C0.513,-0.015 0.511,-0.01 0.506,-0.006C0.501,-0.002 0.494,-0 0.487,-0L0.455,-0C0.438,-0 0.43,-0.008 0.43,-0.025ZM0.123,-0.244C0.123,-0.221 0.127,-0.199 0.134,-0.178C0.141,-0.157 0.152,-0.139 0.166,-0.124C0.179,-0.108 0.196,-0.096 0.215,-0.087C0.234,-0.078 0.256,-0.073 0.279,-0.073C0.303,-0.073 0.324,-0.077 0.343,-0.086C0.362,-0.095 0.378,-0.107 0.391,-0.122C0.404,-0.137 0.413,-0.154 0.42,-0.175C0.427,-0.196 0.43,-0.218 0.43,-0.242C0.43,-0.265 0.427,-0.288 0.42,-0.309C0.413,-0.33 0.404,-0.348 0.391,-0.364C0.378,-0.379 0.363,-0.392 0.344,-0.401C0.325,-0.41 0.304,-0.415 0.279,-0.415C0.255,-0.415 0.233,-0.411 0.214,-0.402C0.195,-0.393 0.178,-0.38 0.165,-0.365C0.152,-0.349 0.141,-0.331 0.134,-0.31C0.127,-0.289 0.123,-0.267 0.123,-0.244Z" style="fill:rgb(55,148,98);fill-rule:nonzero;"/>
        </g>
        <g transform="matrix(400,0,0,400,1064.6,451.071)">
            <path d="M0.251,0.008L0.235,0.009C0.219,0.009 0.204,0.008 0.189,0.006C0.173,0.003 0.16,-0.002 0.149,-0.011C0.138,-0.019 0.129,-0.031 0.122,-0.047C0.115,-0.063 0.111,-0.084 0.111,-0.111L0.111,-0.411L0.051,-0.411C0.043,-0.411 0.037,-0.413 0.033,-0.416C0.028,-0.419 0.026,-0.424 0.026,-0.433L0.026,-0.47C0.026,-0.479 0.028,-0.484 0.033,-0.487C0.037,-0.49 0.043,-0.491 0.051,-0.491L0.111,-0.491L0.111,-0.632C0.111,-0.643 0.117,-0.649 0.128,-0.652L0.179,-0.659C0.187,-0.659 0.192,-0.656 0.195,-0.651C0.197,-0.646 0.198,-0.64 0.198,-0.633L0.198,-0.491L0.272,-0.491C0.287,-0.491 0.294,-0.483 0.294,-0.468L0.294,-0.435C0.294,-0.419 0.287,-0.411 0.272,-0.411L0.198,-0.411L0.198,-0.143C0.198,-0.126 0.199,-0.113 0.201,-0.104C0.202,-0.095 0.205,-0.088 0.21,-0.083C0.214,-0.078 0.219,-0.076 0.226,-0.075C0.233,-0.074 0.241,-0.073 0.251,-0.073C0.268,-0.073 0.276,-0.065 0.276,-0.048L0.276,-0.016C0.276,-0.001 0.268,0.007 0.251,0.008Z" style="fill:rgb(55,148,98);fill-rule:nonzero;"/>
        </g>
        <g transform="matrix(400,0,0,400,1163.8,451.071)">
            <path d="M0.43,-0.025L0.43,-0.072C0.415,-0.049 0.397,-0.03 0.374,-0.014C0.351,0.002 0.32,0.01 0.279,0.01C0.244,0.01 0.212,0.004 0.183,-0.01C0.154,-0.023 0.128,-0.041 0.107,-0.064C0.086,-0.087 0.069,-0.114 0.058,-0.145C0.046,-0.175 0.04,-0.209 0.04,-0.244C0.04,-0.279 0.046,-0.313 0.058,-0.344C0.069,-0.375 0.086,-0.401 0.107,-0.425C0.128,-0.448 0.153,-0.466 0.182,-0.479C0.211,-0.492 0.244,-0.499 0.279,-0.499C0.3,-0.499 0.318,-0.497 0.333,-0.492C0.348,-0.487 0.362,-0.481 0.374,-0.474C0.386,-0.466 0.397,-0.457 0.406,-0.447C0.415,-0.437 0.423,-0.427 0.43,-0.416L0.434,-0.466C0.435,-0.474 0.437,-0.48 0.44,-0.485C0.443,-0.489 0.449,-0.491 0.458,-0.491L0.487,-0.491C0.494,-0.491 0.501,-0.489 0.506,-0.485C0.511,-0.48 0.513,-0.474 0.513,-0.466L0.513,-0.022C0.513,-0.015 0.511,-0.01 0.506,-0.006C0.501,-0.002 0.494,-0 0.487,-0L0.455,-0C0.438,-0 0.43,-0.008 0.43,-0.025ZM0.123,-0.244C0.123,-0.221 0.127,-0.199 0.134,-0.178C0.141,-0.157 0.152,-0.139 0.166,-0.124C0.179,-0.108 0.196,-0.096 0.215,-0.087C0.234,-0.078 0.256,-0.073 0.279,-0.073C0.303,-0.073 0.324,-0.077 0.343,-0.086C0.362,-0.095 0.378,-0.107 0.391,-0.122C0.404,-0.137 0.413,-0.154 0.42,-0.175C0.427,-0.196 0.43,-0.218 0.43,-0.242C0.43,-0.265 0.427,-0.288 0.42,-0.309C0.413,-0.33 0.404,-0.348 0.391,-0.364C0.378,-0.379 0.363,-0.392 0.344,-0.401C0.325,-0.41 0.304,-0.415 0.279,-0.415C0.255,-0.415 0.233,-0.411 0.214,-0.402C0.195,-0.393 0.178,-0.38 0.165,-0.365C0.152,-0.349 0.141,-0.331 0.134,-0.31C0.127,-0.289 0.123,-0.267 0.123,-0.244Z" style="fill:rgb(55,148,98);fill-rule:nonzero;"/>
        </g>
        <g transform="matrix(400,0,0,400,1482.6,451.071)">
            <path d="M0.505,-0.718L0.505,-0.025C0.505,-0.008 0.496,-0 0.477,-0L0.447,-0C0.428,-0 0.419,-0.008 0.419,-0.025L0.419,-0.066C0.402,-0.043 0.383,-0.025 0.36,-0.011C0.337,0.003 0.306,0.01 0.268,0.01C0.233,0.01 0.202,0.004 0.174,-0.01C0.145,-0.023 0.121,-0.041 0.101,-0.064C0.081,-0.087 0.066,-0.114 0.055,-0.145C0.044,-0.175 0.038,-0.209 0.038,-0.244C0.038,-0.279 0.044,-0.313 0.055,-0.344C0.066,-0.375 0.081,-0.401 0.101,-0.425C0.121,-0.448 0.145,-0.466 0.174,-0.479C0.202,-0.492 0.233,-0.499 0.268,-0.499C0.306,-0.499 0.337,-0.492 0.36,-0.477C0.383,-0.462 0.403,-0.443 0.419,-0.42L0.419,-0.718C0.419,-0.734 0.428,-0.742 0.447,-0.742L0.476,-0.742C0.485,-0.742 0.492,-0.74 0.497,-0.736C0.502,-0.731 0.505,-0.725 0.505,-0.718ZM0.427,-0.243C0.427,-0.266 0.423,-0.289 0.416,-0.31C0.409,-0.331 0.399,-0.349 0.386,-0.365C0.373,-0.38 0.357,-0.393 0.338,-0.402C0.319,-0.411 0.299,-0.415 0.276,-0.415C0.251,-0.415 0.23,-0.411 0.211,-0.402C0.192,-0.393 0.176,-0.38 0.163,-0.365C0.15,-0.349 0.141,-0.331 0.135,-0.31C0.128,-0.289 0.125,-0.266 0.125,-0.243C0.125,-0.22 0.128,-0.198 0.135,-0.177C0.141,-0.156 0.15,-0.138 0.163,-0.123C0.176,-0.107 0.192,-0.095 0.211,-0.086C0.23,-0.077 0.251,-0.072 0.276,-0.072C0.299,-0.072 0.319,-0.077 0.338,-0.086C0.356,-0.095 0.372,-0.107 0.385,-0.123C0.398,-0.138 0.409,-0.156 0.416,-0.177C0.423,-0.198 0.427,-0.22 0.427,-0.243Z" style="fill:rgb(55,148,98);fill-rule:nonzero;"/>
        </g>
        <g transform="matrix(400,0,0,400,1694.2,451.071)">
            <path d="M0.162,-0.469L0.167,-0.432C0.176,-0.447 0.189,-0.462 0.207,-0.477C0.225,-0.492 0.249,-0.499 0.28,-0.499C0.291,-0.499 0.303,-0.497 0.314,-0.494C0.325,-0.491 0.335,-0.487 0.344,-0.483C0.353,-0.478 0.36,-0.474 0.366,-0.469C0.371,-0.464 0.374,-0.46 0.374,-0.457C0.374,-0.456 0.373,-0.453 0.372,-0.449L0.347,-0.402C0.343,-0.395 0.339,-0.392 0.334,-0.392C0.331,-0.392 0.328,-0.393 0.327,-0.394C0.325,-0.395 0.323,-0.396 0.322,-0.397C0.315,-0.401 0.307,-0.405 0.297,-0.408C0.287,-0.411 0.277,-0.412 0.268,-0.413C0.253,-0.413 0.24,-0.409 0.227,-0.401C0.214,-0.393 0.204,-0.383 0.195,-0.371C0.186,-0.358 0.18,-0.344 0.175,-0.329C0.17,-0.313 0.167,-0.297 0.167,-0.282L0.167,-0.022C0.167,-0.007 0.16,-0 0.145,-0L0.104,-0C0.089,-0 0.081,-0.007 0.081,-0.022L0.081,-0.469C0.081,-0.476 0.083,-0.481 0.088,-0.485C0.092,-0.489 0.097,-0.491 0.103,-0.491L0.139,-0.491C0.146,-0.491 0.152,-0.489 0.156,-0.485C0.159,-0.48 0.161,-0.475 0.162,-0.469Z" style="fill:rgb(55,148,98);fill-rule:nonzero;"/>
        </g>
        <g transform="matrix(400,0,0,400,1826.6,451.071)">
            <path d="M0.167,-0.469L0.167,-0.022C0.167,-0.007 0.16,-0 0.145,-0L0.103,-0C0.088,-0 0.081,-0.007 0.081,-0.022L0.081,-0.469C0.081,-0.484 0.088,-0.491 0.103,-0.491L0.145,-0.491C0.16,-0.491 0.167,-0.484 0.167,-0.469ZM0.061,-0.629C0.061,-0.646 0.067,-0.661 0.08,-0.674C0.092,-0.686 0.107,-0.692 0.124,-0.692C0.142,-0.692 0.157,-0.686 0.169,-0.674C0.181,-0.661 0.187,-0.646 0.187,-0.629C0.187,-0.612 0.181,-0.597 0.169,-0.585C0.157,-0.573 0.142,-0.567 0.124,-0.567C0.107,-0.567 0.092,-0.573 0.08,-0.585C0.067,-0.597 0.061,-0.612 0.061,-0.629Z" style="fill:rgb(55,148,98);fill-rule:nonzero;"/>
        </g>
        <g transform="matrix(400,0,0,400,1905.8,451.071)">
            <path d="M0.268,-0.746C0.284,-0.746 0.292,-0.737 0.292,-0.72L0.292,-0.686C0.292,-0.679 0.29,-0.674 0.287,-0.669C0.283,-0.664 0.277,-0.661 0.27,-0.661C0.247,-0.66 0.229,-0.655 0.216,-0.646C0.203,-0.637 0.196,-0.617 0.196,-0.586L0.196,-0.491L0.268,-0.491C0.284,-0.491 0.292,-0.483 0.292,-0.466L0.292,-0.44C0.292,-0.421 0.284,-0.412 0.268,-0.412L0.196,-0.412L0.196,-0.025C0.196,-0.017 0.193,-0.011 0.188,-0.007C0.182,-0.002 0.176,-0 0.17,-0L0.132,-0C0.116,-0 0.108,-0.008 0.108,-0.025L0.108,-0.412L0.056,-0.412C0.049,-0.412 0.043,-0.415 0.038,-0.42C0.033,-0.424 0.031,-0.431 0.031,-0.44L0.031,-0.466C0.031,-0.475 0.033,-0.482 0.038,-0.486C0.043,-0.489 0.049,-0.491 0.056,-0.491L0.108,-0.491L0.108,-0.587C0.108,-0.634 0.121,-0.672 0.146,-0.701C0.17,-0.73 0.211,-0.745 0.268,-0.746Z" style="fill:rgb(55,148,98);fill-rule:nonzero;"/>
        </g>
        <g transform="matrix(400,0,0,400,1999.4,451.071)">
            <path d="M0.251,0.008L0.235,0.009C0.219,0.009 0.204,0.008 0.189,0.006C0.173,0.003 0.16,-0.002 0.149,-0.011C0.138,-0.019 0.129,-0.031 0.122,-0.047C0.115,-0.063 0.111,-0.084 0.111,-0.111L0.111,-0.411L0.051,-0.411C0.043,-0.411 0.037,-0.413 0.033,-0.416C0.028,-0.419 0.026,-0.424 0.026,-0.433L0.026,-0.47C0.026,-0.479 0.028,-0.484 0.033,-0.487C0.037,-0.49 0.043,-0.491 0.051,-0.491L0.111,-0.491L0.111,-0.632C0.111,-0.643 0.117,-0.649 0.128,-0.652L0.179,-0.659C0.187,-0.659 0.192,-0.656 0.195,-0.651C0.197,-0.646 0.198,-0.64 0.198,-0.633L0.198,-0.491L0.272,-0.491C0.287,-0.491 0.294,-0.483 0.294,-0.468L0.294,-0.435C0.294,-0.419 0.287,-0.411 0.272,-0.411L0.198,-0.411L0.198,-0.143C0.198,-0.126 0.199,-0.113 0.201,-0.104C0.202,-0.095 0.205,-0.088 0.21,-0.083C0.214,-0.078 0.219,-0.076 0.226,-0.075C0.233,-0.074 0.241,-0.073 0.251,-0.073C0.268,-0.073 0.276,-0.065 0.276,-0.048L0.276,-0.016C0.276,-0.001 0.268,0.007 0.251,0.008Z" style="fill:rgb(55,148,98);fill-rule:nonzero;"/>
        </g>
    </g>
    <g transform="matrix(1,0,0,1,-620.7,-405.309)">
        <g transform="matrix(9.95033e-17,-1.62501,1.62501,9.95033e-17,874.989,3876.37)">
            <path d="M1630.37,341.95C1626.68,334.558 1619.13,329.888 1610.87,329.888C1602.61,329.888 1595.06,334.558 1591.37,341.95L1456.33,612.488C1452.96,619.244 1453.33,627.264 1457.3,633.686C1461.27,640.108 1468.28,644.016 1475.84,644.016L1745.9,644.016C1753.45,644.016 1760.46,640.108 1764.43,633.686C1768.4,627.264 1768.77,619.244 1765.4,612.488L1630.37,341.95ZM1610.87,351.683L1745.9,622.221L1475.84,622.221L1610.87,351.683Z" style="fill:rgb(55,148,98);"/>
        </g>
        <g transform="matrix(9.95033e-17,-1.62501,1.62501,9.95033e-17,757.651,4049.01)">
            <path d="M1630.28,341.945C1626.59,334.555 1619.04,329.886 1610.78,329.888C1602.52,329.89 1594.97,334.562 1591.28,341.954L1456.33,612.493C1452.96,619.249 1453.33,627.268 1457.3,633.688C1461.27,640.109 1468.29,644.016 1475.84,644.016L1745.9,644.016C1753.45,644.016 1760.46,640.107 1764.43,633.684C1768.41,627.261 1768.77,619.239 1765.4,612.483L1630.28,341.945ZM1610.78,351.683L1745.9,622.221L1475.84,622.221L1610.78,351.683Z" style="fill:rgb(55,148,98);"/>
        </g>
        <g transform="matrix(1,0,0,1,434.528,-511.281)">
            <g transform="matrix(1.09555,0,0,1,-137.637,0)">
                <path d="M1451.03,2178.32C1451.03,2175.29 1452.08,2172.69 1454.18,2170.53C1456.28,2168.38 1458.85,2167.3 1461.88,2167.3C1465.03,2167.3 1467.66,2168.38 1469.76,2170.53C1471.86,2172.69 1472.91,2175.29 1472.91,2178.32C1472.91,2181.35 1471.86,2183.95 1469.76,2186.11C1467.66,2188.27 1465.03,2189.35 1461.88,2189.35C1458.85,2189.35 1456.28,2188.27 1454.18,2186.11C1452.08,2183.95 1451.03,2181.35 1451.03,2178.32Z" style="fill:rgb(55,148,98);fill-rule:nonzero;stroke:rgb(55,148,98);stroke-width:0.95px;"/>
            </g>
            <g transform="matrix(1.09555,0,0,1,-137.637,0)">
                <path d="M1521.91,2187.95C1521.44,2187.95 1521,2187.97 1520.59,2188.03C1520.18,2188.09 1519.69,2188.12 1519.11,2188.12C1516.31,2188.12 1513.59,2187.92 1510.97,2187.51C1508.34,2187.1 1506.04,2186.17 1504.06,2184.71C1502.07,2183.25 1500.47,2181.12 1499.24,2178.32C1498.02,2175.52 1497.41,2171.79 1497.41,2167.12L1497.41,2114.62L1486.91,2114.62C1485.51,2114.62 1484.43,2114.36 1483.67,2113.83C1482.91,2113.31 1482.53,2112.29 1482.53,2110.77L1482.53,2104.3C1482.53,2102.78 1482.91,2101.79 1483.67,2101.32C1484.43,2100.85 1485.51,2100.62 1486.91,2100.62L1497.41,2100.62L1497.41,2075.95C1497.41,2074.08 1498.4,2072.91 1500.38,2072.45L1509.31,2071.22C1510.71,2071.22 1511.61,2071.69 1512.02,2072.62C1512.43,2073.55 1512.63,2074.6 1512.63,2075.77L1512.63,2100.62L1525.58,2100.62C1528.15,2100.62 1529.43,2101.96 1529.43,2104.65L1529.43,2110.42C1529.43,2113.22 1528.15,2114.62 1525.58,2114.62L1512.63,2114.62L1512.63,2161.52C1512.63,2164.44 1512.78,2166.71 1513.07,2168.35C1513.36,2169.98 1513.88,2171.2 1514.64,2172.02C1515.4,2172.84 1516.37,2173.33 1517.53,2173.51C1518.7,2173.68 1520.16,2173.77 1521.91,2173.77C1524.82,2173.77 1526.28,2175.23 1526.28,2178.15L1526.28,2183.75C1526.28,2186.31 1524.82,2187.71 1521.91,2187.95Z" style="fill:rgb(55,148,98);fill-rule:nonzero;stroke:rgb(55,148,98);stroke-width:0.95px;"/>
            </g>
            <g transform="matrix(1.09555,0,0,1,-137.637,0)">
                <path d="M1572.44,2188.65C1566.72,2188.65 1561.35,2187.48 1556.34,2185.15C1551.32,2182.81 1546.94,2179.63 1543.21,2175.61C1539.48,2171.58 1536.53,2166.83 1534.37,2161.35C1532.22,2155.86 1531.14,2150.03 1531.14,2143.85C1531.14,2137.66 1532.22,2131.83 1534.37,2126.35C1536.53,2120.86 1539.48,2116.08 1543.21,2112C1546.94,2107.91 1551.32,2104.7 1556.34,2102.37C1561.35,2100.04 1566.72,2098.87 1572.44,2098.87C1577.8,2098.87 1582.85,2099.95 1587.57,2102.11C1592.3,2104.27 1596.44,2107.21 1600,2110.95C1603.56,2114.68 1606.39,2119.05 1608.49,2124.07C1610.59,2129.09 1611.64,2134.45 1611.64,2140.17L1611.64,2142.27C1611.64,2145.77 1610.53,2147.99 1608.31,2148.92C1606.1,2149.85 1603.41,2150.32 1600.26,2150.32L1546.54,2150.32C1547.59,2157.32 1550.53,2163.01 1555.37,2167.38C1560.22,2171.76 1565.9,2173.95 1572.44,2173.95C1575.94,2173.95 1579.47,2173.3 1583.02,2172.02C1586.58,2170.74 1589.76,2168.93 1592.56,2166.6C1593.38,2165.78 1594.43,2165.37 1595.71,2165.37C1596.53,2165.37 1597.17,2165.72 1597.64,2166.42L1602.54,2173.77C1603,2174.24 1603.24,2174.76 1603.24,2175.35C1603.12,2176.16 1602.74,2176.86 1602.1,2177.45C1601.46,2178.03 1600.85,2178.5 1600.26,2178.85C1596.3,2181.53 1592.04,2183.83 1587.49,2185.76C1582.94,2187.68 1577.92,2188.65 1572.44,2188.65ZM1547.24,2137.37L1596.76,2137.37C1596.18,2134.1 1595.13,2131.01 1593.61,2128.1C1592.1,2125.18 1590.23,2122.64 1588.01,2120.48C1585.8,2118.32 1583.32,2116.63 1580.57,2115.41C1577.83,2114.18 1575,2113.57 1572.09,2113.57C1569.05,2113.57 1566.19,2114.18 1563.51,2115.41C1560.83,2116.63 1558.41,2118.32 1556.25,2120.48C1554.09,2122.64 1552.22,2125.18 1550.65,2128.1C1549.07,2131.01 1547.94,2134.1 1547.24,2137.37Z" style="fill:rgb(55,148,98);fill-rule:nonzero;stroke:rgb(55,148,98);stroke-width:0.95px;"/>
            </g>
            <g transform="matrix(1.09555,0,0,1,-137.637,0)">
                <path d="M1659.41,2174.65C1662.91,2174.65 1666.47,2173.92 1670.09,2172.46C1673.7,2171 1676.85,2169.1 1679.54,2166.77C1680.59,2165.95 1681.64,2165.55 1682.69,2165.55C1683.62,2165.55 1684.26,2165.9 1684.61,2166.6L1689.69,2173.77C1690.04,2174.24 1690.21,2174.76 1690.21,2175.35C1690.21,2176.16 1689.86,2176.86 1689.16,2177.45C1688.46,2178.03 1687.82,2178.5 1687.24,2178.85C1683.39,2181.53 1679.13,2183.83 1674.46,2185.76C1669.8,2187.68 1664.78,2188.65 1659.41,2188.65C1653.23,2188.65 1647.39,2187.48 1641.91,2185.15C1636.43,2182.81 1631.67,2179.63 1627.65,2175.61C1623.62,2171.58 1620.44,2166.83 1618.11,2161.35C1615.78,2155.86 1614.61,2150.03 1614.61,2143.85C1614.61,2137.66 1615.78,2131.83 1618.11,2126.35C1620.44,2120.86 1623.62,2116.08 1627.65,2112C1631.67,2107.91 1636.43,2104.7 1641.91,2102.37C1647.39,2100.04 1653.23,2098.87 1659.41,2098.87C1664.08,2098.87 1668.6,2099.57 1672.97,2100.97C1677.35,2102.37 1681.81,2104.7 1686.36,2107.97C1688.23,2109.25 1689.16,2110.42 1689.16,2111.47C1689.16,2111.7 1689.13,2112.03 1689.07,2112.43C1689.02,2112.84 1688.87,2113.16 1688.64,2113.4L1683.91,2120.92L1683.91,2120.75C1683.44,2121.45 1682.69,2121.8 1681.64,2121.8C1680.94,2121.8 1680,2121.33 1678.84,2120.4C1676.15,2118.3 1673.18,2116.52 1669.91,2115.06C1666.64,2113.6 1663.14,2112.87 1659.41,2112.87C1655.21,2112.87 1651.25,2113.69 1647.51,2115.32C1643.78,2116.95 1640.51,2119.2 1637.71,2122.06C1634.91,2124.92 1632.69,2128.21 1631.06,2131.95C1629.43,2135.68 1628.61,2139.65 1628.61,2143.85C1628.61,2148.05 1629.43,2152.01 1631.06,2155.75C1632.69,2159.48 1634.91,2162.75 1637.71,2165.55C1640.51,2168.35 1643.78,2170.56 1647.51,2172.2C1651.25,2173.83 1655.21,2174.65 1659.41,2174.65Z" style="fill:rgb(55,148,98);fill-rule:nonzero;stroke:rgb(55,148,98);stroke-width:0.95px;"/>
            </g>
            <g transform="matrix(1.09555,0,0,1,-137.637,0)">
                <path d="M1717.69,2060.55L1717.69,2112.7C1719.09,2111.06 1720.89,2109.43 1723.11,2107.8C1725.33,2106.16 1727.78,2104.7 1730.46,2103.42C1733.14,2102.14 1735.94,2101.09 1738.86,2100.27C1741.78,2099.45 1744.52,2099.05 1747.09,2099.05C1752.1,2099.05 1756.65,2100.01 1760.74,2101.93C1764.82,2103.86 1768.29,2106.45 1771.15,2109.72C1774.01,2112.99 1776.19,2116.84 1777.71,2121.27C1779.23,2125.7 1779.99,2130.49 1779.99,2135.62L1779.99,2182.17C1779.99,2183.57 1779.58,2184.65 1778.76,2185.41C1777.94,2186.17 1776.95,2186.55 1775.79,2186.55L1768.61,2186.55C1766.98,2186.55 1765.93,2186.2 1765.46,2185.5C1765,2184.8 1764.76,2183.75 1764.76,2182.35L1764.76,2135.62C1764.76,2132.7 1764.38,2129.93 1763.62,2127.31C1762.87,2124.68 1761.67,2122.41 1760.04,2120.48C1758.4,2118.56 1756.27,2117.01 1753.65,2115.85C1751.02,2114.68 1747.85,2114.1 1744.11,2114.1C1741.31,2114.1 1738.39,2114.62 1735.36,2115.67C1732.33,2116.72 1729.56,2118.18 1727.05,2120.05C1724.54,2121.91 1722.41,2124.1 1720.66,2126.61C1718.91,2129.12 1717.92,2131.83 1717.69,2134.75L1717.69,2182.7C1717.69,2185.26 1716.4,2186.55 1713.84,2186.55L1706.66,2186.55C1703.98,2186.55 1702.64,2185.26 1702.64,2182.7L1702.64,2060.55C1702.64,2057.98 1703.92,2056.7 1706.49,2056.7L1713.66,2056.7C1714.83,2056.7 1715.79,2057.05 1716.55,2057.75C1717.31,2058.45 1717.69,2059.38 1717.69,2060.55Z" style="fill:rgb(55,148,98);fill-rule:nonzero;stroke:rgb(55,148,98);stroke-width:0.95px;"/>
            </g>
        </g>
    </g>
</svg>
