<?xml version="1.0" encoding="UTF-8" standalone="no"?>
<!DOCTYPE svg PUBLIC "-//W3C//DTD SVG 1.1//EN" "http://www.w3.org/Graphics/SVG/1.1/DTD/svg11.dtd">
<svg width="100%" height="100%" viewBox="0 0 2363 2363" version="1.1" xmlns="http://www.w3.org/2000/svg" xmlns:xlink="http://www.w3.org/1999/xlink" xml:space="preserve" xmlns:serif="http://www.serif.com/" style="fill-rule:evenodd;clip-rule:evenodd;stroke-linecap:round;stroke-linejoin:round;stroke-miterlimit:1.5;">
    <g transform="matrix(1.3609,0,0,1.25887,-450.323,1252.98)">
        <text x="643.398px" y="451.071px" style="font-family:'CocoGothic', 'Coco Gothic';font-size:317.746px;fill:rgb(72,72,74);">d<tspan x="808.308px 977.985px " y="451.071px 451.071px ">at</tspan></text>
        <text x="1056.79px" y="451.071px" style="font-family:'CocoGothic', 'Coco Gothic';font-size:317.746px;fill:rgb(72,72,74);">a</text>
        <text x="1268.72px" y="451.071px" style="font-family:'CocoGothic', 'Coco Gothic';font-size:317.746px;fill:rgb(72,72,74);">d<tspan x="1433.63px " y="451.071px ">r</tspan></text>
        <text x="1535.63px" y="451.071px" style="font-family:'CocoGothic', 'Coco Gothic';font-size:317.746px;fill:rgb(72,72,74);">i</text>
        <text x="1598.54px" y="451.071px" style="font-family:'CocoGothic', 'Coco Gothic';font-size:317.746px;fill:rgb(72,72,74);">f<tspan x="1672.9px " y="451.071px ">t</tspan></text>
    </g>
    <g transform="matrix(0.879476,0,0,0.902295,-358.716,-130.36)">
        <g transform="matrix(1.03277e-16,-1.68664,1.68664,1.03277e-16,831.315,3968.33)">
            <path d="M1610.87,351.683L1745.9,622.221L1475.84,622.221L1610.87,351.683Z" style="fill:none;stroke:url(#_Linear1);stroke-width:36.05px;"/>
        </g>
        <g transform="matrix(9.71502e-17,-1.58658,1.58658,9.71502e-17,743.381,4028.01)">
            <path d="M1644.46,333.981C1637.98,321.015 1624.98,312.86 1610.77,312.864C1596.57,312.867 1583.57,321.029 1577.1,333.998L1442.15,604.536C1436.15,616.571 1436.68,630.942 1443.56,642.475C1450.43,654.007 1462.66,661.04 1475.84,661.04L1745.9,661.04C1759.08,661.04 1771.31,654.004 1778.18,642.467C1785.06,630.929 1785.58,616.554 1779.57,604.519L1644.46,333.981ZM1610.78,351.683L1745.9,622.221L1475.84,622.221L1610.78,351.683Z" style="fill:url(#_Linear2);"/>
        </g>
        <g transform="matrix(1.03277e-16,-1.68664,1.68664,1.03277e-16,831.315,3968.33)">
            <path d="M1529.77,514.171L1610.87,351.683L1745.9,622.221L1475.84,622.221" style="fill:none;stroke:url(#_Linear3);stroke-width:36.05px;stroke-linejoin:miter;"/>
        </g>
        <g transform="matrix(1.09555,0,0,1,247.455,-507.883)">
            <text x="1440.53px" y="2186.55px" style="font-family:'CocoGothic', 'Coco Gothic';font-size:193.95px;fill:rgb(72,72,74);">.<tspan x="1482.04px 1532.41px 1625.9px 1715.31px " y="2186.55px 2186.55px 2186.55px 2186.55px ">tech</tspan></text>
        </g>
    </g>
    <defs>
        <linearGradient id="_Linear1" x1="0" y1="0" x2="1" y2="0" gradientUnits="userSpaceOnUse" gradientTransform="matrix(270.062,0,0,270.538,1475.84,486.952)"><stop offset="0" style="stop-color:rgb(253,185,50);stop-opacity:1"/><stop offset="1" style="stop-color:rgb(239,63,68);stop-opacity:1"/></linearGradient>
        <linearGradient id="_Linear2" x1="0" y1="0" x2="1" y2="0" gradientUnits="userSpaceOnUse" gradientTransform="matrix(270.062,0,0,270.538,1475.84,486.952)"><stop offset="0" style="stop-color:rgb(66,106,179);stop-opacity:1"/><stop offset="1" style="stop-color:rgb(76,168,163);stop-opacity:1"/></linearGradient>
        <linearGradient id="_Linear3" x1="0" y1="0" x2="1" y2="0" gradientUnits="userSpaceOnUse" gradientTransform="matrix(270.062,0,0,270.538,1475.84,486.952)"><stop offset="0" style="stop-color:rgb(253,185,50);stop-opacity:1"/><stop offset="1" style="stop-color:rgb(239,63,68);stop-opacity:1"/></linearGradient>
    </defs>
</svg>
