<?xml version="1.0" encoding="UTF-8" standalone="no"?>
<!DOCTYPE svg PUBLIC "-//W3C//DTD SVG 1.1//EN" "http://www.w3.org/Graphics/SVG/1.1/DTD/svg11.dtd">
<svg width="100%" height="100%" viewBox="0 0 815 815" version="1.1" xmlns="http://www.w3.org/2000/svg" xmlns:xlink="http://www.w3.org/1999/xlink" xml:space="preserve" xmlns:serif="http://www.serif.com/" style="fill-rule:evenodd;clip-rule:evenodd;stroke-linejoin:round;stroke-miterlimit:2;">
    <g transform="matrix(1,0,0,1,-180.469,-148.266)">
        <g transform="matrix(1,0,0,1,356.143,-225.966)">
            <g transform="matrix(270.262,0,0,250,193.124,866.841)">
                <path d="M0.505,-0.718L0.505,-0.025C0.505,-0.008 0.496,-0 0.477,-0L0.447,-0C0.428,-0 0.419,-0.008 0.419,-0.025L0.419,-0.066C0.402,-0.043 0.383,-0.025 0.36,-0.011C0.337,0.003 0.306,0.01 0.268,0.01C0.233,0.01 0.202,0.004 0.174,-0.01C0.145,-0.023 0.121,-0.041 0.101,-0.064C0.081,-0.087 0.066,-0.114 0.055,-0.145C0.044,-0.175 0.038,-0.209 0.038,-0.244C0.038,-0.279 0.044,-0.313 0.055,-0.344C0.066,-0.375 0.081,-0.401 0.101,-0.425C0.121,-0.448 0.145,-0.466 0.174,-0.479C0.202,-0.492 0.233,-0.499 0.268,-0.499C0.306,-0.499 0.337,-0.492 0.36,-0.477C0.383,-0.462 0.403,-0.443 0.419,-0.42L0.419,-0.718C0.419,-0.734 0.428,-0.742 0.447,-0.742L0.476,-0.742C0.485,-0.742 0.492,-0.74 0.497,-0.736C0.502,-0.731 0.505,-0.725 0.505,-0.718ZM0.427,-0.243C0.427,-0.266 0.423,-0.289 0.416,-0.31C0.409,-0.331 0.399,-0.349 0.386,-0.365C0.373,-0.38 0.357,-0.393 0.338,-0.402C0.319,-0.411 0.299,-0.415 0.276,-0.415C0.251,-0.415 0.23,-0.411 0.211,-0.402C0.192,-0.393 0.176,-0.38 0.163,-0.365C0.15,-0.349 0.141,-0.331 0.135,-0.31C0.128,-0.289 0.125,-0.266 0.125,-0.243C0.125,-0.22 0.128,-0.198 0.135,-0.177C0.141,-0.156 0.15,-0.138 0.163,-0.123C0.176,-0.107 0.192,-0.095 0.211,-0.086C0.23,-0.077 0.251,-0.072 0.276,-0.072C0.299,-0.072 0.319,-0.077 0.338,-0.086C0.356,-0.095 0.372,-0.107 0.385,-0.123C0.398,-0.138 0.409,-0.156 0.416,-0.177C0.423,-0.198 0.427,-0.22 0.427,-0.243Z" style="fill:rgb(85,190,129);fill-rule:nonzero;"/>
            </g>
            <g transform="matrix(270.262,0,0,250,333.39,866.841)">
                <path d="M0.162,-0.469L0.167,-0.432C0.176,-0.447 0.189,-0.462 0.207,-0.477C0.225,-0.492 0.249,-0.499 0.28,-0.499C0.291,-0.499 0.303,-0.497 0.314,-0.494C0.325,-0.491 0.335,-0.487 0.344,-0.483C0.353,-0.478 0.36,-0.474 0.366,-0.469C0.371,-0.464 0.374,-0.46 0.374,-0.457C0.374,-0.456 0.373,-0.453 0.372,-0.449L0.347,-0.402C0.343,-0.395 0.339,-0.392 0.334,-0.392C0.331,-0.392 0.328,-0.393 0.327,-0.394C0.325,-0.395 0.323,-0.396 0.322,-0.397C0.315,-0.401 0.307,-0.405 0.297,-0.408C0.287,-0.411 0.277,-0.412 0.268,-0.413C0.253,-0.413 0.24,-0.409 0.227,-0.401C0.214,-0.393 0.204,-0.383 0.195,-0.371C0.186,-0.358 0.18,-0.344 0.175,-0.329C0.17,-0.313 0.167,-0.297 0.167,-0.282L0.167,-0.022C0.167,-0.007 0.16,-0 0.145,-0L0.104,-0C0.089,-0 0.081,-0.007 0.081,-0.022L0.081,-0.469C0.081,-0.476 0.083,-0.481 0.088,-0.485C0.092,-0.489 0.097,-0.491 0.103,-0.491L0.139,-0.491C0.146,-0.491 0.152,-0.489 0.156,-0.485C0.159,-0.48 0.161,-0.475 0.162,-0.469Z" style="fill:rgb(85,190,129);fill-rule:nonzero;"/>
            </g>
            <g transform="matrix(270.262,0,0,250,420.144,866.841)">
                <path d="M0.167,-0.469L0.167,-0.022C0.167,-0.007 0.16,-0 0.145,-0L0.103,-0C0.088,-0 0.081,-0.007 0.081,-0.022L0.081,-0.469C0.081,-0.484 0.088,-0.491 0.103,-0.491L0.145,-0.491C0.16,-0.491 0.167,-0.484 0.167,-0.469ZM0.061,-0.629C0.061,-0.646 0.067,-0.661 0.08,-0.674C0.092,-0.686 0.107,-0.692 0.124,-0.692C0.142,-0.692 0.157,-0.686 0.169,-0.674C0.181,-0.661 0.187,-0.646 0.187,-0.629C0.187,-0.612 0.181,-0.597 0.169,-0.585C0.157,-0.573 0.142,-0.567 0.124,-0.567C0.107,-0.567 0.092,-0.573 0.08,-0.585C0.067,-0.597 0.061,-0.612 0.061,-0.629Z" style="fill:rgb(85,190,129);fill-rule:nonzero;"/>
            </g>
            <g transform="matrix(270.262,0,0,250,473.656,866.841)">
                <path d="M0.268,-0.746C0.284,-0.746 0.292,-0.737 0.292,-0.72L0.292,-0.686C0.292,-0.679 0.29,-0.674 0.287,-0.669C0.283,-0.664 0.277,-0.661 0.27,-0.661C0.247,-0.66 0.229,-0.655 0.216,-0.646C0.203,-0.637 0.196,-0.617 0.196,-0.586L0.196,-0.491L0.268,-0.491C0.284,-0.491 0.292,-0.483 0.292,-0.466L0.292,-0.44C0.292,-0.421 0.284,-0.412 0.268,-0.412L0.196,-0.412L0.196,-0.025C0.196,-0.017 0.193,-0.011 0.188,-0.007C0.182,-0.002 0.176,-0 0.17,-0L0.132,-0C0.116,-0 0.108,-0.008 0.108,-0.025L0.108,-0.412L0.056,-0.412C0.049,-0.412 0.043,-0.415 0.038,-0.42C0.033,-0.424 0.031,-0.431 0.031,-0.44L0.031,-0.466C0.031,-0.475 0.033,-0.482 0.038,-0.486C0.043,-0.489 0.049,-0.491 0.056,-0.491L0.108,-0.491L0.108,-0.587C0.108,-0.634 0.121,-0.672 0.146,-0.701C0.17,-0.73 0.211,-0.745 0.268,-0.746Z" style="fill:rgb(85,190,129);fill-rule:nonzero;"/>
            </g>
            <g transform="matrix(270.262,0,0,250,536.898,866.841)">
                <path d="M0.251,0.008L0.235,0.009C0.219,0.009 0.204,0.008 0.189,0.006C0.173,0.003 0.16,-0.002 0.149,-0.011C0.138,-0.019 0.129,-0.031 0.122,-0.047C0.115,-0.063 0.111,-0.084 0.111,-0.111L0.111,-0.411L0.051,-0.411C0.043,-0.411 0.037,-0.413 0.033,-0.416C0.028,-0.419 0.026,-0.424 0.026,-0.433L0.026,-0.47C0.026,-0.479 0.028,-0.484 0.033,-0.487C0.037,-0.49 0.043,-0.491 0.051,-0.491L0.111,-0.491L0.111,-0.632C0.111,-0.643 0.117,-0.649 0.128,-0.652L0.179,-0.659C0.187,-0.659 0.192,-0.656 0.195,-0.651C0.197,-0.646 0.198,-0.64 0.198,-0.633L0.198,-0.491L0.272,-0.491C0.287,-0.491 0.294,-0.483 0.294,-0.468L0.294,-0.435C0.294,-0.419 0.287,-0.411 0.272,-0.411L0.198,-0.411L0.198,-0.143C0.198,-0.126 0.199,-0.113 0.201,-0.104C0.202,-0.095 0.205,-0.088 0.21,-0.083C0.214,-0.078 0.219,-0.076 0.226,-0.075C0.233,-0.074 0.241,-0.073 0.251,-0.073C0.268,-0.073 0.276,-0.065 0.276,-0.048L0.276,-0.016C0.276,-0.001 0.268,0.007 0.251,0.008Z" style="fill:rgb(85,190,129);fill-rule:nonzero;"/>
            </g>
        </g>
        <g transform="matrix(1.3609,0,0,1.25887,-682.468,86.7794)">
            <g transform="matrix(198.591,0,0,198.591,643.398,451.071)">
                <path d="M0.505,-0.718L0.505,-0.025C0.505,-0.008 0.496,-0 0.477,-0L0.447,-0C0.428,-0 0.419,-0.008 0.419,-0.025L0.419,-0.066C0.402,-0.043 0.383,-0.025 0.36,-0.011C0.337,0.003 0.306,0.01 0.268,0.01C0.233,0.01 0.202,0.004 0.174,-0.01C0.145,-0.023 0.121,-0.041 0.101,-0.064C0.081,-0.087 0.066,-0.114 0.055,-0.145C0.044,-0.175 0.038,-0.209 0.038,-0.244C0.038,-0.279 0.044,-0.313 0.055,-0.344C0.066,-0.375 0.081,-0.401 0.101,-0.425C0.121,-0.448 0.145,-0.466 0.174,-0.479C0.202,-0.492 0.233,-0.499 0.268,-0.499C0.306,-0.499 0.337,-0.492 0.36,-0.477C0.383,-0.462 0.403,-0.443 0.419,-0.42L0.419,-0.718C0.419,-0.734 0.428,-0.742 0.447,-0.742L0.476,-0.742C0.485,-0.742 0.492,-0.74 0.497,-0.736C0.502,-0.731 0.505,-0.725 0.505,-0.718ZM0.427,-0.243C0.427,-0.266 0.423,-0.289 0.416,-0.31C0.409,-0.331 0.399,-0.349 0.386,-0.365C0.373,-0.38 0.357,-0.393 0.338,-0.402C0.319,-0.411 0.299,-0.415 0.276,-0.415C0.251,-0.415 0.23,-0.411 0.211,-0.402C0.192,-0.393 0.176,-0.38 0.163,-0.365C0.15,-0.349 0.141,-0.331 0.135,-0.31C0.128,-0.289 0.125,-0.266 0.125,-0.243C0.125,-0.22 0.128,-0.198 0.135,-0.177C0.141,-0.156 0.15,-0.138 0.163,-0.123C0.176,-0.107 0.192,-0.095 0.211,-0.086C0.23,-0.077 0.251,-0.072 0.276,-0.072C0.299,-0.072 0.319,-0.077 0.338,-0.086C0.356,-0.095 0.372,-0.107 0.385,-0.123C0.398,-0.138 0.409,-0.156 0.416,-0.177C0.423,-0.198 0.427,-0.22 0.427,-0.243Z" style="fill:rgb(47,57,94);fill-rule:nonzero;"/>
            </g>
            <g transform="matrix(198.591,0,0,198.591,744.481,451.071)">
                <path d="M0.43,-0.025L0.43,-0.072C0.415,-0.049 0.397,-0.03 0.374,-0.014C0.351,0.002 0.32,0.01 0.279,0.01C0.244,0.01 0.212,0.004 0.183,-0.01C0.154,-0.023 0.128,-0.041 0.107,-0.064C0.086,-0.087 0.069,-0.114 0.058,-0.145C0.046,-0.175 0.04,-0.209 0.04,-0.244C0.04,-0.279 0.046,-0.313 0.058,-0.344C0.069,-0.375 0.086,-0.401 0.107,-0.425C0.128,-0.448 0.153,-0.466 0.182,-0.479C0.211,-0.492 0.244,-0.499 0.279,-0.499C0.3,-0.499 0.318,-0.497 0.333,-0.492C0.348,-0.487 0.362,-0.481 0.374,-0.474C0.386,-0.466 0.397,-0.457 0.406,-0.447C0.415,-0.437 0.423,-0.427 0.43,-0.416L0.434,-0.466C0.435,-0.474 0.437,-0.48 0.44,-0.485C0.443,-0.489 0.449,-0.491 0.458,-0.491L0.487,-0.491C0.494,-0.491 0.501,-0.489 0.506,-0.485C0.511,-0.48 0.513,-0.474 0.513,-0.466L0.513,-0.022C0.513,-0.015 0.511,-0.01 0.506,-0.006C0.501,-0.002 0.494,-0 0.487,-0L0.455,-0C0.438,-0 0.43,-0.008 0.43,-0.025ZM0.123,-0.244C0.123,-0.221 0.127,-0.199 0.134,-0.178C0.141,-0.157 0.152,-0.139 0.166,-0.124C0.179,-0.108 0.196,-0.096 0.215,-0.087C0.234,-0.078 0.256,-0.073 0.279,-0.073C0.303,-0.073 0.324,-0.077 0.343,-0.086C0.362,-0.095 0.378,-0.107 0.391,-0.122C0.404,-0.137 0.413,-0.154 0.42,-0.175C0.427,-0.196 0.43,-0.218 0.43,-0.242C0.43,-0.265 0.427,-0.288 0.42,-0.309C0.413,-0.33 0.404,-0.348 0.391,-0.364C0.378,-0.379 0.363,-0.392 0.344,-0.401C0.325,-0.41 0.304,-0.415 0.279,-0.415C0.255,-0.415 0.233,-0.411 0.214,-0.402C0.195,-0.393 0.178,-0.38 0.165,-0.365C0.152,-0.349 0.141,-0.331 0.134,-0.31C0.127,-0.289 0.123,-0.267 0.123,-0.244Z" style="fill:rgb(47,57,94);fill-rule:nonzero;"/>
            </g>
            <g transform="matrix(198.591,0,0,198.591,848.543,451.071)">
                <path d="M0.251,0.008L0.235,0.009C0.219,0.009 0.204,0.008 0.189,0.006C0.173,0.003 0.16,-0.002 0.149,-0.011C0.138,-0.019 0.129,-0.031 0.122,-0.047C0.115,-0.063 0.111,-0.084 0.111,-0.111L0.111,-0.411L0.051,-0.411C0.043,-0.411 0.037,-0.413 0.033,-0.416C0.028,-0.419 0.026,-0.424 0.026,-0.433L0.026,-0.47C0.026,-0.479 0.028,-0.484 0.033,-0.487C0.037,-0.49 0.043,-0.491 0.051,-0.491L0.111,-0.491L0.111,-0.632C0.111,-0.643 0.117,-0.649 0.128,-0.652L0.179,-0.659C0.187,-0.659 0.192,-0.656 0.195,-0.651C0.197,-0.646 0.198,-0.64 0.198,-0.633L0.198,-0.491L0.272,-0.491C0.287,-0.491 0.294,-0.483 0.294,-0.468L0.294,-0.435C0.294,-0.419 0.287,-0.411 0.272,-0.411L0.198,-0.411L0.198,-0.143C0.198,-0.126 0.199,-0.113 0.201,-0.104C0.202,-0.095 0.205,-0.088 0.21,-0.083C0.214,-0.078 0.219,-0.076 0.226,-0.075C0.233,-0.074 0.241,-0.073 0.251,-0.073C0.268,-0.073 0.276,-0.065 0.276,-0.048L0.276,-0.016C0.276,-0.001 0.268,0.007 0.251,0.008Z" style="fill:rgb(47,57,94);fill-rule:nonzero;"/>
            </g>
            <g transform="matrix(198.591,0,0,198.591,895.807,451.071)">
                <path d="M0.43,-0.025L0.43,-0.072C0.415,-0.049 0.397,-0.03 0.374,-0.014C0.351,0.002 0.32,0.01 0.279,0.01C0.244,0.01 0.212,0.004 0.183,-0.01C0.154,-0.023 0.128,-0.041 0.107,-0.064C0.086,-0.087 0.069,-0.114 0.058,-0.145C0.046,-0.175 0.04,-0.209 0.04,-0.244C0.04,-0.279 0.046,-0.313 0.058,-0.344C0.069,-0.375 0.086,-0.401 0.107,-0.425C0.128,-0.448 0.153,-0.466 0.182,-0.479C0.211,-0.492 0.244,-0.499 0.279,-0.499C0.3,-0.499 0.318,-0.497 0.333,-0.492C0.348,-0.487 0.362,-0.481 0.374,-0.474C0.386,-0.466 0.397,-0.457 0.406,-0.447C0.415,-0.437 0.423,-0.427 0.43,-0.416L0.434,-0.466C0.435,-0.474 0.437,-0.48 0.44,-0.485C0.443,-0.489 0.449,-0.491 0.458,-0.491L0.487,-0.491C0.494,-0.491 0.501,-0.489 0.506,-0.485C0.511,-0.48 0.513,-0.474 0.513,-0.466L0.513,-0.022C0.513,-0.015 0.511,-0.01 0.506,-0.006C0.501,-0.002 0.494,-0 0.487,-0L0.455,-0C0.438,-0 0.43,-0.008 0.43,-0.025ZM0.123,-0.244C0.123,-0.221 0.127,-0.199 0.134,-0.178C0.141,-0.157 0.152,-0.139 0.166,-0.124C0.179,-0.108 0.196,-0.096 0.215,-0.087C0.234,-0.078 0.256,-0.073 0.279,-0.073C0.303,-0.073 0.324,-0.077 0.343,-0.086C0.362,-0.095 0.378,-0.107 0.391,-0.122C0.404,-0.137 0.413,-0.154 0.42,-0.175C0.427,-0.196 0.43,-0.218 0.43,-0.242C0.43,-0.265 0.427,-0.288 0.42,-0.309C0.413,-0.33 0.404,-0.348 0.391,-0.364C0.378,-0.379 0.363,-0.392 0.344,-0.401C0.325,-0.41 0.304,-0.415 0.279,-0.415C0.255,-0.415 0.233,-0.411 0.214,-0.402C0.195,-0.393 0.178,-0.38 0.165,-0.365C0.152,-0.349 0.141,-0.331 0.134,-0.31C0.127,-0.289 0.123,-0.267 0.123,-0.244Z" style="fill:rgb(47,57,94);fill-rule:nonzero;"/>
            </g>
        </g>
    </g>
</svg>
